<svg xmlns="http://www.w3.org/2000/svg" viewBox="0 0 18 18"><g fill="none" class="nc-icon-wrapper"><path d="M8.99805 6.75098C8.40131 6.75098 7.82901 6.98803 7.40706 7.40999C6.9851 7.83194 6.74805 8.40424 6.74805 9.00098C6.74805 9.59771 6.9851 10.17 7.40706 10.592C7.82901 11.0139 8.40131 11.251 8.99805 11.251C9.59478 11.251 10.1671 11.0139 10.589 10.592C11.011 10.17 11.248 9.59771 11.248 9.00098C11.248 8.40424 11.011 7.83194 10.589 7.40999C10.1671 6.98803 9.59478 6.75098 8.99805 6.75098ZM8.99805 5.25098C9.99261 5.25098 10.9464 5.64607 11.6497 6.34933C12.353 7.05259 12.748 8.00642 12.748 9.00098C12.748 9.99554 12.353 10.9494 11.6497 11.6526C10.9464 12.3559 9.99261 12.751 8.99805 12.751C8.00349 12.751 7.04966 12.3559 6.3464 11.6526C5.64314 10.9494 5.24805 9.99554 5.24805 9.00098C5.24805 8.00642 5.64314 7.05259 6.3464 6.34933C7.04966 5.64607 8.00349 5.25098 8.99805 5.25098ZM13.873 5.06348C13.873 5.31212 13.7743 5.55057 13.5985 5.72639C13.4226 5.9022 13.1842 6.00098 12.9355 6.00098C12.6869 6.00098 12.4485 5.9022 12.2726 5.72639C12.0968 5.55057 11.998 5.31212 11.998 5.06348C11.998 4.81484 12.0968 4.57638 12.2726 4.40056C12.4485 4.22475 12.6869 4.12598 12.9355 4.12598C13.1842 4.12598 13.4226 4.22475 13.5985 4.40056C13.7743 4.57638 13.873 4.81484 13.873 5.06348ZM8.99805 3.00098C7.14255 3.00098 6.83955 3.00623 5.9763 3.04448C5.3883 3.07223 4.9938 3.15098 4.6278 3.29348C4.3023 3.41948 4.06755 3.57023 3.8178 3.82073C3.58305 4.04753 3.40256 4.32441 3.2898 4.63073C3.1473 4.99823 3.06855 5.39198 3.04155 5.97923C3.00255 6.80723 2.99805 7.09673 2.99805 9.00098C2.99805 10.8565 3.0033 11.1595 3.04155 12.0227C3.0693 12.61 3.14805 13.0052 3.2898 13.3705C3.4173 13.6967 3.5673 13.9315 3.8163 14.1805C4.06905 14.4325 4.3038 14.5832 4.6263 14.7077C4.9968 14.851 5.3913 14.9305 5.9763 14.9575C6.8043 14.9965 7.0938 15.001 8.99805 15.001C10.8535 15.001 11.1565 14.9957 12.0198 14.9575C12.6063 14.9297 13.0015 14.851 13.3675 14.7092C13.6923 14.5825 13.9285 14.4317 14.1775 14.1827C14.4303 13.93 14.581 13.6952 14.7055 13.3727C14.848 13.003 14.9275 12.6077 14.9545 12.0227C14.9935 11.1947 14.998 10.9052 14.998 9.00098C14.998 7.14548 14.9928 6.84248 14.9545 5.97923C14.9268 5.39273 14.848 4.99673 14.7055 4.63073C14.5925 4.32473 14.4124 4.04795 14.1783 3.82073C13.9516 3.58586 13.6747 3.40535 13.3683 3.29273C13.0008 3.15023 12.6063 3.07148 12.0198 3.04448C11.1918 3.00548 10.9023 3.00098 8.99805 3.00098ZM8.99805 1.50098C11.0358 1.50098 11.29 1.50848 12.0895 1.54598C12.8883 1.58348 13.432 1.70873 13.9105 1.89473C14.4055 2.08523 14.8225 2.34323 15.2395 2.75948C15.6209 3.1344 15.916 3.58792 16.1043 4.08848C16.2895 4.56623 16.4155 5.11073 16.453 5.90948C16.4883 6.70898 16.498 6.96323 16.498 9.00098C16.498 11.0387 16.4905 11.293 16.453 12.0925C16.4155 12.8912 16.2895 13.435 16.1043 13.9135C15.9166 14.4143 15.6214 14.8679 15.2395 15.2425C14.8645 15.6237 14.411 15.9188 13.9105 16.1072C13.4328 16.2925 12.8883 16.4185 12.0895 16.456C11.29 16.4912 11.0358 16.501 8.99805 16.501C6.9603 16.501 6.70605 16.4935 5.90655 16.456C5.1078 16.4185 4.56405 16.2925 4.08555 16.1072C3.58479 15.9193 3.13119 15.6242 2.75655 15.2425C2.3751 14.8676 2.08 14.4141 1.8918 13.9135C1.7058 13.4357 1.58055 12.8912 1.54305 12.0925C1.5078 11.293 1.49805 11.0387 1.49805 9.00098C1.49805 6.96323 1.50555 6.70898 1.54305 5.90948C1.58055 5.10998 1.7058 4.56698 1.8918 4.08848C2.07947 3.58761 2.37465 3.13397 2.75655 2.75948C3.1313 2.3779 3.58487 2.08277 4.08555 1.89473C4.56405 1.70873 5.10705 1.58348 5.90655 1.54598C6.70605 1.51073 6.9603 1.50098 8.99805 1.50098Z" fill="currentColor"></path></g></svg>