<svg xmlns="http://www.w3.org/2000/svg" viewBox="0 0 18 18"><g fill="none" class="nc-icon-wrapper"><path d="M6.36555 14.3942C6.38355 14.1422 6.41955 13.891 6.47355 13.6435C6.5208 13.4222 6.66405 12.796 6.87405 11.8885L6.8793 11.866L7.16955 10.615C7.2288 10.36 7.27455 10.162 7.3053 10.096C7.15966 9.75928 7.08706 9.39553 7.0923 9.02873C7.0923 8.02598 7.6593 7.24898 8.3943 7.24898C8.6643 7.24448 8.9223 7.36148 9.1008 7.56848C9.2793 7.77473 9.3618 8.05148 9.3273 8.31548C9.3273 8.65523 9.26355 8.91398 8.98755 9.84173C8.9343 10.0202 8.89755 10.1447 8.86305 10.27C8.8248 10.411 8.7918 10.5385 8.76405 10.6615C8.69205 10.951 8.75805 11.2592 8.9418 11.491C9.03098 11.6042 9.14606 11.6944 9.27736 11.7539C9.40866 11.8135 9.55234 11.8406 9.6963 11.833C10.8153 11.833 11.6463 10.3442 11.6463 8.42198C11.6463 6.94448 10.6788 5.96648 9.0723 5.96648C8.67014 5.95153 8.26926 6.0202 7.89501 6.16814C7.52076 6.31609 7.18128 6.54009 6.89805 6.82598C6.60874 7.11813 6.3805 7.46496 6.22663 7.84623C6.07275 8.22751 5.99632 8.63561 6.0018 9.04673C5.98315 9.48979 6.11888 9.9256 6.3858 10.2797C6.52155 10.3847 6.5733 10.567 6.51705 10.7222C6.4863 10.8482 6.41205 11.1362 6.38505 11.2322C6.37722 11.2794 6.3585 11.3241 6.33038 11.3628C6.30226 11.4014 6.26551 11.433 6.22305 11.455C6.18199 11.4764 6.13641 11.4877 6.0901 11.488C6.0438 11.4882 5.99809 11.4774 5.9568 11.4565C5.0868 11.0972 4.6098 10.123 4.6098 8.87648C4.6098 6.63773 6.47805 4.68848 9.2538 4.68848C11.605 4.68848 13.3645 6.43523 13.3645 8.54348C13.3645 11.1925 11.9155 13.1215 9.84705 13.1215C9.55283 13.13 9.26072 13.0694 8.99421 12.9445C8.72769 12.8195 8.49421 12.6338 8.31255 12.4022L8.2803 12.535L8.12505 13.174L8.12355 13.1792C8.01405 13.6292 7.93755 13.942 7.90755 14.0597C7.82805 14.326 7.72755 14.587 7.60755 14.8397C9.09996 15.195 10.6718 14.9651 11.9999 14.1973C13.3281 13.4295 14.3117 12.1822 14.7486 10.7116C15.1855 9.24098 15.0425 7.6589 14.349 6.29048C13.6555 4.92207 12.4641 3.87128 11.0198 3.35409C9.57552 2.83689 7.98797 2.89258 6.58345 3.50971C5.17893 4.12684 4.06415 5.25852 3.46823 6.67216C2.87231 8.08581 2.84051 9.67402 3.37938 11.1104C3.91826 12.5467 4.98685 13.7221 6.36555 14.395V14.3942ZM8.99805 16.501C4.8558 16.501 1.49805 13.1432 1.49805 9.00098C1.49805 4.85873 4.8558 1.50098 8.99805 1.50098C13.1403 1.50098 16.498 4.85873 16.498 9.00098C16.498 13.1432 13.1403 16.501 8.99805 16.501Z" fill="currentColor"></path></g></svg>