<svg xmlns="http://www.w3.org/2000/svg" viewBox="-1.00 -1.00 52.12 59.99" fill="none"><path d="M25.0508 0L19.3613 3.29058V7.91646L15.3654 5.60829L9.67591 8.89887V13.5152L5.67996 11.207L0 14.4976V43.4928L1.70304 44.4753V15.48L5.69899 13.1623L9.69494 15.4705V49.1011L11.3885 50.0835V16.4624L19.3709 21.0788V54.6999L25.0603 57.9905L30.7593 54.6999V25.7047L21.0644 20.0964V10.8637L38.7322 21.0978V50.0931L40.4352 49.1107V20.1154L21.0644 8.89887V4.28252L25.0603 1.96481L48.4271 15.4896V44.4848L50.1206 43.5024V14.4976L25.0508 0ZM29.0563 26.6966V53.7175L25.0603 56.0352L21.0644 53.727V22.0707L29.0563 26.6966ZM19.3613 19.1235L11.3789 14.4976V9.88127L15.3749 7.5731L19.3709 9.88127V19.1235H19.3613Z" fill="#3E3A39"></path></svg>
