<svg xmlns="http://www.w3.org/2000/svg" width="58" height="58" viewBox="0 0 58 58" fill="none"><path d="M58 57.8904H43.0038V25.7656L37.9316 29.9319V58H32.1977V33.1115L36.8289 29.3837V22.9149L21.1711 10.6352V33.6597L26.5741 37.6068V57.8904H19.9582V34.3176L16.2091 31.5766V57.8904H0V0H58V57.8904ZM44.2167 56.7939H56.8973V1.20605H1.21293V56.7939H15.2167V29.2741L20.0684 32.8922V8.22306L38.0418 22.3667V28.397L44.2167 23.2439V56.7939ZM33.4106 56.7939H36.8289V30.9187L33.4106 33.7694V56.7939ZM21.1711 56.7939H25.3612V38.2646L21.1711 35.1947V56.7939Z" fill="#3E3A39"></path></svg>
