<svg xmlns="http://www.w3.org/2000/svg" xmlns:xlink="http://www.w3.org/1999/xlink" width="170" height="50" viewBox="0 0 170 50"><defs><clipPath id="a"><rect width="170" height="50" transform="translate(475 4504)" fill="#fff" stroke="#707070" stroke-width="1"/></clipPath></defs><g transform="translate(-475 -4504)" clip-path="url(#a)"><g transform="translate(395.782 4193.42)"><rect width="77.699" height="0.935" transform="translate(125.044 350.048)" fill="#fff"/><path d="M125.044,315.447h22.549v-3.141H125.044Zm9.52,29.76h3.511v-26.16h-3.511Z" transform="translate(0 -0.565)" fill="#fff"/><path d="M251.7,311.577h-3.548V338H251.7Zm-3.548,33.229h20.536v-3.175H248.151Z" transform="translate(-95.406 0)" fill="#fff"/><path d="M364.029,331.013l15.4-18.967h4.313L373.353,324.8l11.871,20.267h-4.172l-10.064-17.576-6.959,8.346v9.23h-3.522v-9.747m0-5.7V312.046h3.522V325.28" transform="translate(-182.481 -0.363)" fill="#fff"/><g transform="translate(138.234 354.53)"><path d="M395.862,508.519a2.545,2.545,0,0,1-2-.772l.426-.427a2.011,2.011,0,0,0,1.594.641c.853,0,1.379-.4,1.379-1.084a.947.947,0,0,0-.279-.732,1.256,1.256,0,0,0-.764-.279l-.682-.107a2.163,2.163,0,0,1-1.076-.443,1.383,1.383,0,0,1-.444-1.092,1.654,1.654,0,0,1,1.873-1.651,2.345,2.345,0,0,1,1.74.641l-.4.4a1.841,1.841,0,0,0-1.363-.5,1.08,1.08,0,0,0-1.232,1.083.849.849,0,0,0,.262.674,1.692,1.692,0,0,0,.788.32l.641.1a1.89,1.89,0,0,1,1.068.41,1.468,1.468,0,0,1,.492,1.158c0,1.026-.805,1.659-2.02,1.659" transform="translate(-346.562 -502.551)" fill="#fff"/><path d="M234.028,503.414h4.054v-.565h-4.054Zm1.712,5.351h.631v-4.7h-.631Z" transform="translate(-222.695 -502.764)" fill="#fff"/><rect width="0.638" height="5.976" transform="translate(7.453 0.055)" fill="#fff"/><g transform="translate(32.846 0)"><path d="M329.635,508.429h3.75v-.569H330.28V503.04h3.106v-.57h-3.75Z" transform="translate(-329.635 -502.471)" fill="#fff"/><rect width="1.929" height="0.576" transform="translate(1.363 2.707)" fill="#fff"/></g><path d="M268.494,508.912A2.087,2.087,0,0,1,267,508.3c-.548-.549-.548-1.123-.548-2.361s0-1.812.548-2.362a2.087,2.087,0,0,1,1.493-.607,2.21,2.21,0,0,1,1.639.714l-.417.418a1.584,1.584,0,0,0-1.222-.574,1.4,1.4,0,0,0-1.008.41c-.37.377-.411.78-.411,2s.041,1.623.411,2a1.406,1.406,0,0,0,1.008.41,1.583,1.583,0,0,0,1.222-.574l.417.418a2.209,2.209,0,0,1-1.639.714" transform="translate(-247.824 -502.862)" fill="#fff"/><path d="M297.693,502.633h-.635v1.977h.635Zm0,5.942v-2.662h2.82v2.662h.635v-5.942h-.635v2.712h-3.455v3.23Z" transform="translate(-271.543 -502.597)" fill="#fff"/><g transform="translate(39.838 0.083)"><path d="M377.338,508.709l.034.05h.6v-5.92h-.632Z" transform="translate(-373.597 -502.839)" fill="#fff"/><path d="M360.711,502.839v5.921h.632v-4.749l2.407,3.637v-1.135l-2.441-3.674Z" transform="translate(-360.711 -502.839)" fill="#fff"/></g><path d="M184.3,505.931l2.769-3.409h.775l-1.868,2.292,2.134,3.644h-.75l-1.81-3.16-1.251,1.5v1.659h-.633v-1.752m0-1.039v-3.145h.633v2.363" transform="translate(-183.663 -502.51)" fill="#fff"/></g></g></g></svg>