<svg xmlns="http://www.w3.org/2000/svg" viewBox="0 0 62 52"><g fill="none" class="nc-icon-wrapper"><path d="M21.973 25.275a3.914 3.914 0 0 0 1.609-2.977 3.434 3.434 0 0 0-2.47-3.202 5.754 5.754 0 0 0-3.619.047 4.16 4.16 0 0 0-2.321 1.848c-.306.557-.497 1.376.019 1.876a1.059 1.059 0 0 0 1.357.12c.525-.392.6-1.181 1.033-1.666a2.048 2.048 0 0 1 1.568-.65 1.789 1.789 0 0 1 1.807 1.333 1.9 1.9 0 0 1-.567 1.95c-.429.346-.966.53-1.517.517-.711 0-1.762.074-1.762 1.024 0 .947.883 1.027 1.618.957.817-.077 1.691-.031 2.298.599a2.427 2.427 0 0 1 .612 1.756 2.43 2.43 0 0 1-2.412 2.49c-1.345 0-1.99-1.005-2.466-2.112-.212-.491-.41-1.048-1.047-1.048a1.251 1.251 0 0 0-.895.34c-.571.54-.342 1.363-.058 1.986a4.77 4.77 0 0 0 2.389 2.307 5.52 5.52 0 0 0 4.12.053 4.66 4.66 0 0 0 2.643-2.446 3.806 3.806 0 0 0-.68-4.183 5.277 5.277 0 0 0-1.259-.92z" fill="currentColor"></path><path d="M33.514 24.17a4.135 4.135 0 0 0-3.394.033c-.548.279-1.03.67-1.417 1.148.067-1.4.155-3.36 1.452-4.232 1.066-.718 2.57-.488 3.038.805a1.377 1.377 0 0 0 1.254.958c1.387 0 1.08-1.646.58-2.394-1.21-1.807-4-2.07-5.836-1.187-1.504.724-2.357 2.22-2.766 3.782-.574 2.193-.61 4.869.244 6.993a4.787 4.787 0 0 0 4.561 3.106 5.046 5.046 0 0 0 2.504-.617 4.396 4.396 0 0 0 1.723-1.719 5.132 5.132 0 0 0 .301-4.231 4.268 4.268 0 0 0-2.244-2.446zm-.627 6.336a1.963 1.963 0 0 1-1.6.79 2.053 2.053 0 0 1-1.684-.861 3.402 3.402 0 0 1-.67-2.154c-.012-.488.102-.971.33-1.403.201-.379.503-.695.871-.914a2.216 2.216 0 0 1 1.135-.316c.404-.003.8.112 1.139.33.357.235.64.567.814.958.208.471.31.983.296 1.498a3.218 3.218 0 0 1-.631 2.072z" fill="currentColor"></path><path d="M46.624 30.808c.806-1.434.936-3.12.909-4.748a34.938 34.938 0 0 0-.026-.841c.001-1.245-.24-2.478-.71-3.63a4.593 4.593 0 0 0-4.232-2.785c-2.837 0-4.347 2.217-4.69 4.815-.274 2.063-.368 4.479.42 6.442a4.739 4.739 0 0 0 4.346 3.102 4.565 4.565 0 0 0 3.983-2.355zM44.7 28.855c-.2 1.128-.755 2.365-2.078 2.365-1.321 0-1.85-1.198-2.058-2.326a16.875 16.875 0 0 1-.21-2.949 11.602 11.602 0 0 1 .493-3.925 1.772 1.772 0 0 1 1.756-1.273c1.316 0 1.871 1.11 2.087 2.254.174.946.26 1.906.26 2.867.005 1.001-.08 2-.25 2.987z" fill="currentColor"></path><path d="M47.263 18.51a1.905 1.905 0 1 0 0-3.81 1.905 1.905 0 0 0 0 3.81z" fill="currentColor"></path><path d="M18.063 41.538a18.62 18.62 0 0 1-4.582-2.47A17.953 17.953 0 0 1 6.675 29.05a16.735 16.735 0 0 1 1.05-11.257 15.686 15.686 0 0 1 4.674-5.785l1.352 2.462a.72.72 0 0 0 1.324-.146l2.873-9.872a.723.723 0 0 0-.49-.893L7.584.687a.72.72 0 0 0-.833 1.04l1.184 2.155A23.903 23.903 0 0 0 .902 15.425a22.795 22.795 0 0 0 1.249 15.273 21.584 21.584 0 0 0 10.096 10.436 20.53 20.53 0 0 0 5.428 1.787.721.721 0 0 0 .388-1.383z" fill="currentColor"></path><path d="M61.099 36.574a22.795 22.795 0 0 0-1.249-15.273 21.585 21.585 0 0 0-10.096-10.435 20.532 20.532 0 0 0-5.428-1.788.721.721 0 0 0-.388 1.383 18.614 18.614 0 0 1 4.582 2.471 17.953 17.953 0 0 1 6.805 10.016c.967 3.76.596 7.74-1.05 11.258a15.686 15.686 0 0 1-4.673 5.784l-1.352-2.462a.72.72 0 0 0-1.324.146l-2.873 9.872a.721.721 0 0 0 .49.894l9.873 2.872a.72.72 0 0 0 .833-1.039l-1.184-2.155A23.903 23.903 0 0 0 61.1 36.574z" fill="currentColor"></path></g></svg>