<svg xmlns="http://www.w3.org/2000/svg" viewBox="0 0 22 22"><g fill="none" class="nc-icon-wrapper"><path fill-rule="evenodd" clip-rule="evenodd" d="M2 4.75C2 4.33579 2.33579 4 2.75 4H18.75C19.1642 4 19.5 4.33579 19.5 4.75C19.5 5.16421 19.1642 5.5 18.75 5.5H2.75C2.33579 5.5 2 5.16421 2 4.75ZM2 10.75C2 10.3358 2.33579 10 2.75 10H12.75C13.1642 10 13.5 10.3358 13.5 10.75C13.5 11.1642 13.1642 11.5 12.75 11.5H2.75C2.33579 11.5 2 11.1642 2 10.75ZM2 16.75C2 16.3358 2.33579 16 2.75 16H16.75C17.1642 16 17.5 16.3358 17.5 16.75C17.5 17.1642 17.1642 17.5 16.75 17.5H2.75C2.33579 17.5 2 17.1642 2 16.75Z" fill="currentColor"></path></g></svg>