<svg xmlns="http://www.w3.org/2000/svg" viewBox="0 0 24 24"><path d="M8.832 1.582c-.742.18-1.422.772-1.694 1.474-.247.637-.347.821-.556 1.019a2.045 2.045 0 0 1-.338.263c-.221.114-.641.181-1.15.181-1.023.002-1.774.28-2.452.908-.674.623-1.025 1.331-1.12 2.253-.052.505-.055 8.729-.004 9.94.064 1.512.275 2.1 1.018 2.844.744.743 1.332.954 2.844 1.018 1.102.046 12.156.046 13.24-.001 1.516-.065 2.094-.273 2.841-1.02.751-.751.956-1.325 1.02-2.861.051-1.234.049-9.413-.003-9.92-.095-.922-.446-1.63-1.12-2.253-.678-.628-1.429-.906-2.452-.908-.558 0-.96-.073-1.205-.216a1.723 1.723 0 0 1-.657-.787c-.196-.52-.32-.776-.49-1.009-.32-.439-.866-.8-1.404-.927-.357-.084-5.97-.082-6.318.002m6.381 1.076c.279.141.619.496.715.746l.192.498c.291.75.93 1.314 1.72 1.519.165.043.531.079 1 .099.603.026.786.048.989.119.278.098.64.319.888.543.22.199.531.671.648.984l.095.254.012 5.22c.012 5.448.004 5.774-.157 6.255-.231.686-.876 1.285-1.581 1.468-.515.134-1.563.154-7.734.154s-7.219-.02-7.734-.154c-.705-.183-1.35-.782-1.581-1.468-.161-.481-.169-.807-.157-6.255l.012-5.22.093-.249c.191-.509.535-.944.988-1.246.468-.314.676-.368 1.539-.405 1.038-.044 1.456-.169 1.983-.596.395-.32.604-.654.901-1.44a1.67 1.67 0 0 1 .597-.744c.354-.224.254-.218 3.419-.209l2.92.009.233.118M11.56 8.024c-1.266.157-2.325.736-3.085 1.687-1.458 1.826-1.242 4.533.488 6.103 1.531 1.389 3.794 1.573 5.497.445 2.881-1.908 2.657-6.181-.406-7.748a4.07 4.07 0 0 0-1.151-.409c-.319-.066-1.081-.11-1.343-.078m1.32 1.094a3.544 3.544 0 0 1 2.54 2.664c.075.357.075 1.079 0 1.436a3.516 3.516 0 0 1-2.779 2.719c-1.853.352-3.668-.863-4.061-2.719-.077-.363-.076-1.064.002-1.439A3.544 3.544 0 0 1 9.84 9.754c.431-.344 1.14-.641 1.74-.73.252-.037 1.008.017 1.3.094" fill-rule="evenodd"></path></svg>