<svg xmlns="http://www.w3.org/2000/svg" viewBox="0 0 20 20"><g fill="none" class="nc-icon-wrapper"><path fill-rule="evenodd" clip-rule="evenodd" d="M13.8949 17.56C14.1637 17.56 14.3815 17.3451 14.3815 17.08C14.3815 16.8149 14.1637 16.6 13.8949 16.6C13.6262 16.6 13.4083 16.8149 13.4083 17.08C13.4083 17.3451 13.6262 17.56 13.8949 17.56ZM13.8949 19C14.9699 19 15.8413 18.1404 15.8413 17.08C15.8413 16.0197 14.9699 15.16 13.8949 15.16C12.82 15.16 11.9485 16.0197 11.9485 17.08C11.9485 18.1404 12.82 19 13.8949 19Z" fill="currentColor"></path><path fill-rule="evenodd" clip-rule="evenodd" d="M8.05575 17.56C8.3245 17.56 8.54235 17.3451 8.54235 17.08C8.54235 16.8149 8.3245 16.6 8.05575 16.6C7.787 16.6 7.56915 16.8149 7.56915 17.08C7.56915 17.3451 7.787 17.56 8.05575 17.56ZM8.05575 19C9.1307 19 10.0022 18.1404 10.0022 17.08C10.0022 16.0197 9.1307 15.16 8.05575 15.16C6.98081 15.16 6.10935 16.0197 6.10935 17.08C6.10935 18.1404 6.98081 19 8.05575 19Z" fill="currentColor"></path><path fill-rule="evenodd" clip-rule="evenodd" d="M7.32585 6.52008C7.32585 6.12245 7.65265 5.80009 8.05575 5.80009H10.9753C11.3784 5.80009 11.7052 6.12245 11.7052 6.52008C11.7052 6.91771 11.3784 7.24008 10.9753 7.24008H8.05575C7.65265 7.24008 7.32585 6.91771 7.32585 6.52008Z" fill="currentColor"></path><path fill-rule="evenodd" clip-rule="evenodd" d="M7.32585 9.40006C7.32585 9.00243 7.65265 8.68007 8.05575 8.68007H12.9217C13.3248 8.68007 13.6516 9.00243 13.6516 9.40006C13.6516 9.79769 13.3248 10.1201 12.9217 10.1201H8.05575C7.65265 10.1201 7.32585 9.79769 7.32585 9.40006Z" fill="currentColor"></path><path fill-rule="evenodd" clip-rule="evenodd" d="M1.12266 1.32069C1.34627 0.989831 1.79944 0.900427 2.13485 1.121L3.27156 1.86851C3.63461 2.10725 3.8909 2.47433 3.98759 2.89403L5.99019 11.586C6.11607 12.1323 6.60846 12.52 7.17647 12.52H14.7743C15.3423 12.52 15.8347 12.1323 15.9606 11.586L17.5088 4.86601C17.6818 4.11511 17.1032 3.40005 16.3225 3.40005H8.78565C8.38255 3.40005 8.05575 3.07771 8.05575 2.68007C8.05575 2.28242 8.38255 1.96007 8.78565 1.96007H16.3225C18.04 1.96007 19.3129 3.53311 18.9323 5.18511L17.3841 11.9051C17.1071 13.107 16.0239 13.96 14.7743 13.96H7.17647C5.92688 13.96 4.84361 13.107 4.56669 11.9051L2.56409 3.21314C2.55027 3.15321 2.51366 3.10077 2.4618 3.06666L1.3251 2.31914C0.989691 2.09857 0.899057 1.65155 1.12266 1.32069Z" fill="currentColor"></path></g></svg>