<svg xmlns="http://www.w3.org/2000/svg" viewBox="0 0 20 20"><path d="M8.761 2.047c-.187.066-.296.166-1.449 1.326-.678.681-1.097 1.129-1.142 1.217a.786.786 0 0 0-.006.627c.041.088.467.535 1.257 1.321 1.271 1.263 1.287 1.275 1.597 1.27.291-.004.528-.169.65-.452a.696.696 0 0 0-.021-.596c-.031-.06-.282-.339-.558-.618l-.501-.509h2.107c1.281 0 2.234.014 2.429.036a4.358 4.358 0 0 1 3.728 3.227c.354 1.359.029 2.734-.885 3.754-.25.279-.332.444-.332.667a.72.72 0 0 0 1.015.654c.289-.132.868-.861 1.196-1.506.586-1.153.747-2.356.486-3.637-.462-2.268-2.251-4.049-4.553-4.534-.355-.074-.41-.076-2.771-.086C9.684 4.202 8.6 4.186 8.6 4.173c0-.013.219-.241.487-.507.636-.631.722-.8.594-1.175a.732.732 0 0 0-.92-.444M2.813 6.03a1.552 1.552 0 0 0-.34.275C1.358 7.471.835 9.103 1.05 10.745a5.815 5.815 0 0 0 5.33 5.054c.236.019 1.337.034 2.447.034h2.017l-.5.509c-.569.58-.634.689-.6 1.015.026.254.15.431.387.551a.65.65 0 0 0 .573.041c.127-.043.335-.237 1.367-1.275 1.291-1.298 1.296-1.304 1.296-1.613 0-.256-.117-.397-1.324-1.597-.701-.697-1.208-1.175-1.281-1.208-.167-.076-.466-.073-.622.008a.735.735 0 0 0-.355.928c.031.074.259.332.575.65l.523.528-2.333-.012c-2.56-.014-2.466-.007-3.13-.228-1.439-.479-2.541-1.72-2.873-3.235-.081-.368-.098-1.143-.035-1.529.126-.767.468-1.456 1.046-2.108.133-.149.214-.275.242-.375.161-.575-.445-1.099-.987-.853" fill-rule="evenodd"></path></svg>