<svg xmlns="http://www.w3.org/2000/svg" viewBox="0 0 20 20"><path d="M5.722 1.533a4.97 4.97 0 0 0-1.645.484A6.039 6.039 0 0 0 .836 6.026c-.39 1.6-.09 3.303.825 4.674.428.642 1.119 1.408 2.477 2.751 1.667 1.646 4.76 4.48 5.143 4.711.429.259.931.265 1.385.018.455-.247 4.69-4.171 6.095-5.647 1.037-1.089 1.466-1.62 1.817-2.25a5.957 5.957 0 0 0 .744-2.65c.091-2.057-.915-4.008-2.672-5.184-1.264-.846-2.694-1.126-4.144-.812a6.025 6.025 0 0 0-2.317 1.089l-.195.149-.089-.071a7.124 7.124 0 0 0-1.818-1.003c-.678-.235-1.707-.352-2.365-.268m1.463 2.083c.673.171 1.348.584 1.927 1.182.352.364.487.44.809.461.405.027.524-.033.99-.498.753-.75 1.497-1.135 2.37-1.224.32-.033.793-.006 1.095.061.846.19 1.728.81 2.256 1.585.468.688.679 1.365.681 2.184.002 1.071-.315 1.877-1.11 2.815-.877 1.035-2.965 3.065-5.499 5.347l-.714.642-.103-.096a95.703 95.703 0 0 0-.62-.56c-2.962-2.658-5.337-5.022-5.925-5.898a3.936 3.936 0 0 1-.295-3.87c.489-1.034 1.458-1.878 2.446-2.131a3.485 3.485 0 0 1 1.692 0" fill="currentColor" fill-rule="evenodd"></path></svg>