<svg xmlns="http://www.w3.org/2000/svg" viewBox="0 0 20 20"><g fill="none" class="nc-icon-wrapper"><path fill-rule="evenodd" clip-rule="evenodd" d="M0 7.33333C0 4.38781 2.44208 2 5.45455 2H14.5455C17.5579 2 20 4.38781 20 7.33333V12.6667C20 15.6122 17.5579 18 14.5455 18H5.45455C2.44208 18 0 15.6122 0 12.6667V7.33333ZM5.45455 3.77778C3.44624 3.77778 1.81818 5.36965 1.81818 7.33333V12.6667C1.81818 14.6303 3.44624 16.2222 5.45455 16.2222H14.5455C16.5538 16.2222 18.1818 14.6303 18.1818 12.6667V7.33333C18.1818 5.36965 16.5538 3.77778 14.5455 3.77778H5.45455Z" fill="currentColor"></path><path fill-rule="evenodd" clip-rule="evenodd" d="M3.81818 6.8C4.11943 6.40726 4.68925 6.32767 5.09091 6.62222L9.45455 9.82222C9.77778 10.0593 10.2222 10.0593 10.5455 9.82222L14.9091 6.62222C15.3108 6.32767 15.8806 6.40726 16.1818 6.8C16.4831 7.19274 16.4017 7.74989 16 8.04444L11.6364 11.2444C10.6667 11.9556 9.33333 11.9556 8.36364 11.2444L4 8.04444C3.59834 7.74989 3.51694 7.19274 3.81818 6.8Z" fill="currentColor"></path></g></svg>