<svg xmlns="http://www.w3.org/2000/svg" viewBox="0 0 20 20"><g fill="none" class="nc-icon-wrapper"><path d="M3.7022 4.88071L1 2.17851L2.17851 1L4.88071 3.7022H17.5822C18.0424 3.7022 18.4155 4.0753 18.4155 4.53553C18.4155 4.61663 18.4037 4.69731 18.3804 4.77499L16.3804 11.4417C16.2747 11.7942 15.9502 12.0356 15.5822 12.0356H5.36887V13.7022H14.5356V15.3689H4.53553C4.07529 15.3689 3.7022 14.9957 3.7022 14.5356V4.88071ZM5.36887 5.36887V10.3689H14.9622L16.4622 5.36887H5.36887ZM4.9522 18.7022C4.26184 18.7022 3.7022 18.1426 3.7022 17.4522C3.7022 16.7618 4.26184 16.2022 4.9522 16.2022C5.64256 16.2022 6.2022 16.7618 6.2022 17.4522C6.2022 18.1426 5.64256 18.7022 4.9522 18.7022ZM14.9522 18.7022C14.2618 18.7022 13.7022 18.1426 13.7022 17.4522C13.7022 16.7618 14.2618 16.2022 14.9522 16.2022C15.6426 16.2022 16.2022 16.7618 16.2022 17.4522C16.2022 18.1426 15.6426 18.7022 14.9522 18.7022Z" fill="currentColor"></path></g></svg>