<svg xmlns="http://www.w3.org/2000/svg" viewBox="0 0 20 20"><g fill="none" class="nc-icon-wrapper"><path d="M8.59375 2.0904C8.98958 2.3404 9.09375 2.67374 8.90625 3.0904L6.375 7.99665H13.625L11.0938 3.0904C10.9062 2.67374 11.0104 2.3404 11.4062 2.0904C11.8229 1.9029 12.1562 2.00707 12.4062 2.4029L15.3125 7.99665H16.4688H18H18.25C18.7083 8.03832 18.9583 8.28832 19 8.74665C18.9583 9.20498 18.7083 9.45498 18.25 9.49665H17.625L15.875 16.4967C15.75 16.9342 15.5104 17.2883 15.1562 17.5592C14.8229 17.8508 14.4167 17.9967 13.9375 17.9967H6.0625C5.58333 17.9967 5.17708 17.8508 4.84375 17.5592C4.48958 17.2883 4.25 16.9342 4.125 16.4967L2.375 9.49665H1.75C1.29167 9.45498 1.04167 9.20498 1 8.74665C1.04167 8.28832 1.29167 8.03832 1.75 7.99665H2H3.5625H4.6875L7.59375 2.4029C7.84375 2.00707 8.17708 1.9029 8.59375 2.0904ZM3.9375 9.49665L5.59375 16.1217C5.65625 16.3508 5.8125 16.4758 6.0625 16.4967H13.9375C14.1875 16.4758 14.3542 16.3508 14.4375 16.1217L16.0938 9.49665H3.9375ZM8 11.7467V14.2467C7.95833 14.705 7.70833 14.955 7.25 14.9967C6.79167 14.955 6.54167 14.705 6.5 14.2467V11.7467C6.54167 11.2883 6.79167 11.0383 7.25 10.9967C7.70833 11.0383 7.95833 11.2883 8 11.7467ZM10 10.9967C10.4583 11.0383 10.7083 11.2883 10.75 11.7467V14.2467C10.7083 14.705 10.4583 14.955 10 14.9967C9.54167 14.955 9.29167 14.705 9.25 14.2467V11.7467C9.29167 11.2883 9.54167 11.0383 10 10.9967ZM13.5 11.7467V14.2467C13.4583 14.705 13.2083 14.955 12.75 14.9967C12.2917 14.955 12.0417 14.705 12 14.2467V11.7467C12.0417 11.2883 12.2917 11.0383 12.75 10.9967C13.2083 11.0383 13.4583 11.2883 13.5 11.7467Z" fill="currentColor"></path></g></svg>