<svg xmlns="http://www.w3.org/2000/svg" viewBox="0 0 24 24"><g fill="none" class="nc-icon-wrapper"><path fill-rule="evenodd" clip-rule="evenodd" d="M12.0004 4.77528C10.2851 4.77528 8.89451 6.23751 8.89451 8.04126C8.89451 9.84501 10.2851 11.3072 12.0004 11.3072C13.7157 11.3072 15.1063 9.84501 15.1063 8.04126C15.1063 6.23751 13.7157 4.77528 12.0004 4.77528ZM6.63569 8.04126C6.63569 4.92569 9.03755 2.40002 12.0004 2.40002C14.9632 2.40002 17.3651 4.92569 17.3651 8.04126C17.3651 11.1568 14.9632 13.6825 12.0004 13.6825C9.03755 13.6825 6.63569 11.1568 6.63569 8.04126ZM12.0004 17.6413C9.05372 17.6413 6.35788 18.9894 4.35156 21.2271C3.92366 21.7043 3.20887 21.7265 2.75503 21.2765C2.30118 20.8266 2.28015 20.0749 2.70805 19.5977C5.09851 16.9316 8.37204 15.266 12.0004 15.266C15.6287 15.266 18.9023 16.9316 21.2927 19.5977C21.7206 20.0749 21.6996 20.8266 21.2458 21.2765C20.7919 21.7265 20.0771 21.7043 19.6492 21.2271C17.6429 18.9894 14.9471 17.6413 12.0004 17.6413Z" fill="currentColor"></path></g></svg>