<?xml version="1.0" encoding="UTF-8"?>
<svg id="_圖層_2" data-name="圖層 2" xmlns="http://www.w3.org/2000/svg" viewBox="0 0 50 50">
  <defs>
    <style>
      .cls-1 {
        font-family: NotoSansTC-DemiLight, 'Noto Sans TC';
        font-size: 7px;
        font-variation-settings: 'wght' 350;
        font-weight: 300;
        letter-spacing: .16em;
      }

      .cls-1, .cls-2 {
        fill: #fff;
      }
    </style>
  </defs>
  <text class="cls-1" transform="translate(13.38 43.62)"><tspan x="0" y="0">拍立配</tspan></text>
  <g>
    <path class="cls-2" d="M38.6,15.52h-6.6c-.51,0-.93-.39-.93-.91v-4.19c0-.52.4-.93.92-.93h.81c.11,0,.21-.05.26-.15l.3-.59c.15-.3.46-.47.79-.47h2.26c.33,0,.64.17.79.47l.3.59c.05.1.16.15.26.15h.81c.51,0,.92.39.92.91v4.19c0,.51-.39.93-.91.93ZM37.41,12.21c0-1.16-.94-2.11-2.11-2.11s-2.11.94-2.11,2.11.94,2.11,2.11,2.11,2.11-.94,2.11-2.11ZM38.61,10.7c0-.17-.13-.3-.3-.3s-.3.13-.3.3.13.3.3.3.3-.13.3-.3Z"/>
    <g>
      <path class="cls-2" d="M34.61,11.02h.53l.72,2.26h-.48l-.16-.58h-.73l-.16.58h-.46l.72-2.26ZM35.14,12.35l-.07-.25c-.07-.24-.13-.5-.2-.74h-.01c-.06.25-.12.5-.19.74l-.07.25h.54Z"/>
      <path class="cls-2" d="M36.26,11.02h.45v2.26h-.45v-2.26Z"/>
    </g>
    <g>
      <path class="cls-2" d="M17.83,16.41h11.63c.28,0,.44-.23.44-.45v-1.28c-.02-.17-.09-.3-.22-.41l-2.96-2.37v-4.12c0-.21-.2-.36-.4-.37h-5.28c-.25,0-.46.16-.46.41v4.08s-2.88,2.31-2.88,2.31c-.17.14-.31.27-.3.52v1.24c0,.22.17.45.42.45ZM25.94,8.2v3.5s-4.59,0-4.59,0v-3.5s4.59,0,4.59,0ZM18.18,14.83l2.95-2.35h5.03s2.94,2.36,2.94,2.36v.76s-10.92,0-10.92,0v-.77Z"/>
      <path class="cls-2" d="M32.76,16.7c-1.08.44-1.93,1.25-2.47,2.28-.25.47-.44.94-.52,1.47-.03.17.15.31.28.33.15.02.33-.04.38-.24.32-1.39,1.2-2.57,2.47-3.16.19-.09.31-.21.28-.42-.02-.14-.23-.34-.42-.26Z"/>
      <path class="cls-2" d="M22.11,27.02c-.16,0-.35.15-.35.34v1.72c0,.2.27.29.42.26.18-.04.31-.19.31-.39v-1.58c-.01-.2-.21-.35-.38-.35Z"/>
      <path class="cls-2" d="M11.84,24.28v8.85c0,.34.21.59.57.59h11.39c.31,0,.52-.25.52-.55v-8.93c0-.31-.17-.6-.52-.6h-11.47c-.17,0-.29.02-.4-.1-.2-.2-.15-.79.15-.79h26.95c.32,0,.31.62.17.77-.07.07-.14.11-.32.11h-13.34c-.27,0-.56.24-.56.51v9.02c0,.36.27.55.6.55h12.58c.31,0,.59-.23.59-.56v-8.88c.41.05.78-.05,1.02-.34.21-.26.24-.56.22-.91.02-.47-.32-.98-.86-.98H14.81s.02-2.68.02-2.68c0-.71.75-1.16,1.39-.98.56.18.87.68.82,1.26-.02.17,0,.34.14.44.13.09.29.1.44.01.14-.08.17-.22.18-.4.08-1.17-.81-2.2-2.01-2.12-.91.06-1.67.79-1.73,1.72l-.02,2.73h-1.98c-.61.02-1.02.5-.96,1.1-.07.52.22,1.02.74,1.14ZM12.6,24.43h10.93s0,8.51,0,8.51h-10.93s0-8.51,0-8.51ZM25.72,24.44h12.24s0,3.62,0,3.62h-12.24s0-3.62,0-3.62ZM37.97,32.95h-12.23s0-4.2,0-4.2h12.23s0,4.2,0,4.2Z"/>
      <path class="cls-2" d="M30.63,31.09h2.36c.25,0,.39-.22.38-.4-.01-.18-.14-.36-.35-.37h-2.34c-.23,0-.4.15-.42.36-.02.19.15.4.38.4Z"/>
      <path class="cls-2" d="M33.01,26.03h-2.42c-.22,0-.35.25-.33.43.02.17.17.35.37.35h2.36c.24,0,.38-.21.38-.39,0-.17-.15-.39-.36-.39Z"/>
    </g>
  </g>
</svg>