<?xml version="1.0" standalone="no"?>
<!DOCTYPE svg PUBLIC "-//W3C//DTD SVG 20010904//EN"
 "http://www.w3.org/TR/2001/REC-SVG-20010904/DTD/svg10.dtd">
<svg version="1.0" xmlns="http://www.w3.org/2000/svg"
 width="2220.000000pt" height="428.000000pt" viewBox="0 0 2220.000000 428.000000"
 preserveAspectRatio="xMidYMid meet">
<metadata>
Created by potrace 1.16, written by Peter Selinger 2001-2019
</metadata>
<g transform="translate(0.000000,428.000000) scale(0.100000,-0.100000)"
fill="#c9aa79" stroke="none">
<path d="M567 4266 c-3 -8 -21 -22 -40 -31 -191 -91 -457 -448 -492 -662 -3
-23 -13 -47 -21 -54 -21 -17 -21 -391 1 -409 7 -6 17 -33 21 -58 11 -82 70
-219 141 -329 100 -155 230 -271 402 -359 47 -24 90 -44 96 -44 5 0 32 -9 60
-19 140 -53 181 -55 925 -61 l695 -5 54 -30 c65 -36 129 -97 167 -162 43 -72
43 -232 0 -317 -35 -69 -102 -140 -171 -181 l-50 -30 -1095 -5 -1095 -5 0
-350 0 -350 1150 -3 c717 -1 1167 2 1195 8 127 27 185 42 195 49 5 5 27 14 47
20 21 7 57 23 80 36 24 14 57 32 73 41 94 52 225 182 309 307 31 46 106 204
106 222 0 9 7 32 16 53 24 58 54 255 54 355 0 378 -207 745 -515 913 -11 6
-29 15 -40 22 -66 36 -174 74 -310 109 -63 15 -146 18 -785 23 l-715 5 -54 28
c-141 74 -231 240 -201 372 31 138 117 240 237 283 44 15 140 17 1083 19 569
1 1043 5 1053 7 16 4 17 27 17 305 l0 301 -1294 0 c-1110 0 -1295 -2 -1299
-14z"/>
<path d="M4876 3917 c-88 -199 -176 -399 -198 -445 -21 -46 -38 -85 -38 -88 0
-3 -12 -31 -26 -62 -30 -65 -49 -110 -74 -167 -9 -22 -27 -61 -39 -87 -11 -27
-31 -69 -42 -95 -12 -27 -31 -68 -42 -93 -11 -25 -29 -65 -40 -90 -11 -25 -28
-63 -37 -85 -9 -22 -27 -61 -39 -87 -11 -27 -29 -67 -40 -90 -10 -24 -25 -59
-34 -78 -8 -19 -102 -231 -207 -470 -106 -239 -200 -453 -210 -475 -56 -125
-96 -218 -117 -265 -9 -19 -25 -55 -36 -80 -11 -25 -28 -64 -38 -87 -35 -79
-57 -128 -83 -183 -30 -64 -32 -76 -10 -84 9 -3 179 -6 380 -6 l363 0 27 58
c39 86 50 110 84 192 17 41 37 89 45 105 7 17 34 80 60 140 46 110 62 146 89
208 8 17 22 50 31 72 33 82 -53 75 875 75 l827 0 21 -23 c12 -13 22 -27 22
-31 0 -8 69 -171 110 -261 10 -22 37 -85 60 -140 23 -55 50 -118 60 -140 10
-22 39 -87 64 -145 l45 -105 378 0 378 0 -1 30 c-1 17 -18 66 -39 110 -47 101
-40 85 -245 550 -95 215 -181 410 -192 435 -11 25 -29 65 -40 90 -11 25 -27
61 -35 80 -9 19 -23 53 -33 75 -9 22 -27 61 -39 88 -27 60 -56 125 -80 180
-28 65 -56 127 -81 182 -25 55 -53 117 -81 183 -11 23 -27 61 -38 85 -10 23
-28 63 -40 90 -11 26 -29 66 -40 90 -10 23 -25 58 -34 77 -8 19 -111 251 -227
515 -117 264 -226 510 -243 548 l-31 67 -445 0 -446 -1 -159 -362z m640 -414
c4 -16 13 -39 20 -53 7 -14 36 -79 64 -145 28 -66 58 -136 67 -155 9 -19 24
-53 34 -75 9 -22 38 -89 64 -150 26 -60 54 -126 62 -145 9 -19 23 -53 33 -75
10 -22 24 -56 33 -75 65 -146 97 -225 97 -241 0 -18 -18 -19 -499 -19 -283 0
-502 4 -505 9 -6 9 14 73 38 126 8 17 33 75 56 130 23 55 48 114 55 130 8 17
28 64 45 105 17 41 38 90 46 108 8 17 20 47 28 65 8 17 29 66 46 107 17 41 37
89 45 105 16 36 94 221 106 253 13 34 57 30 65 -5z"/>
<path d="M7718 2558 c-2 -948 1 -1731 5 -1740 7 -17 35 -18 372 -18 222 0 366
4 370 10 3 5 5 356 5 780 0 423 2 781 6 795 10 39 25 31 94 -52 159 -188 204
-240 234 -273 17 -19 63 -73 101 -120 39 -46 77 -92 85 -100 8 -9 60 -70 115
-135 55 -65 118 -140 140 -165 75 -87 133 -155 170 -200 21 -25 59 -70 85
-100 26 -30 80 -93 120 -140 170 -201 216 -255 237 -277 l22 -23 458 2 c398 3
458 5 460 18 2 8 -38 62 -88 120 -50 58 -135 157 -189 220 -89 104 -150 176
-304 354 -28 33 -71 82 -96 111 -25 28 -79 91 -120 140 -41 49 -93 110 -116
135 -22 25 -62 72 -90 105 -27 32 -56 66 -64 75 -19 21 -95 109 -189 220 -40
47 -94 110 -120 140 -159 183 -191 224 -191 242 0 21 26 53 215 268 60 69 193
222 295 339 102 118 192 221 201 230 8 9 46 52 84 96 93 108 166 193 190 220
11 13 58 67 105 121 47 53 127 145 178 203 50 58 92 109 92 113 0 4 -213 8
-474 8 l-474 0 -15 -22 c-8 -13 -25 -33 -37 -46 -12 -13 -60 -67 -107 -120
-47 -53 -100 -113 -117 -132 -18 -19 -92 -102 -165 -185 -73 -82 -148 -166
-165 -185 -18 -19 -141 -159 -276 -310 -134 -151 -247 -279 -252 -285 -6 -6
-14 -3 -24 9 -12 17 -14 118 -14 648 l0 628 -375 0 -375 0 -2 -1722z"/>
<path d="M11000 3087 c0 -1272 -3 -1195 45 -1357 28 -94 95 -249 136 -310 9
-14 38 -59 65 -100 157 -239 409 -411 729 -496 107 -29 1343 -29 1450 0 396
106 651 314 845 691 28 53 50 102 50 109 1 6 9 29 20 51 11 22 19 47 20 56 0
9 10 45 22 80 l23 64 3 1203 3 1202 -380 0 -380 0 -3 -1197 -3 -1198 -22 -47
c-13 -26 -23 -49 -23 -52 0 -19 -77 -121 -121 -160 -134 -120 -169 -126 -781
-126 -533 0 -591 5 -683 56 -82 45 -176 147 -221 239 l-39 80 -3 1203 -2 1202
-375 0 -375 0 0 -1193z"/>
<path d="M15030 2551 c0 -1450 2 -1730 14 -1740 9 -8 117 -11 377 -9 l364 3 5
1415 c3 778 9 1421 13 1428 12 18 1438 17 1518 -1 105 -25 195 -101 255 -217
26 -51 28 -63 28 -170 0 -134 -17 -178 -106 -276 -46 -50 -61 -61 -128 -96
-20 -10 -172 -14 -695 -18 l-670 -5 -3 -21 c-2 -12 3 -28 11 -35 7 -8 43 -53
80 -101 37 -49 97 -127 134 -175 37 -49 72 -93 77 -99 6 -7 58 -74 116 -150
101 -133 259 -337 279 -361 6 -6 37 -46 70 -90 127 -167 339 -442 518 -672
102 -131 109 -139 136 -176 12 -16 49 -63 82 -105 l60 -75 736 -3 c578 -2 738
1 751 10 9 7 30 47 48 88 17 41 37 89 45 105 7 17 32 75 55 130 23 55 48 114
55 130 7 17 25 59 40 95 15 36 35 83 45 105 46 101 58 132 65 152 3 13 16 25
28 28 12 3 393 4 847 3 l825 -3 29 -60 c33 -69 44 -95 81 -185 15 -36 35 -83
45 -105 10 -22 30 -69 45 -105 15 -36 33 -80 41 -97 8 -18 20 -48 28 -65 8
-18 26 -59 40 -92 14 -32 26 -64 26 -71 0 -7 9 -24 21 -39 l20 -26 360 0 359
0 0 75 c0 46 -4 75 -11 75 -5 0 -17 17 -25 38 -8 20 -22 53 -31 72 -20 44 -50
112 -74 168 -24 54 -53 119 -80 180 -12 26 -30 65 -39 87 -20 46 -39 91 -68
155 -11 25 -79 180 -152 345 -72 165 -139 316 -147 335 -9 19 -24 54 -34 78
-11 23 -29 63 -40 90 -33 73 -60 133 -79 177 -9 22 -26 60 -37 85 -11 25 -27
61 -36 80 -8 19 -24 55 -35 80 -11 25 -88 200 -172 390 -83 190 -159 361 -167
380 -15 34 -36 82 -76 170 -11 25 -28 63 -37 85 -47 108 -99 222 -121 267 -11
20 -19 44 -19 52 0 26 -908 24 -916 -1 -6 -17 -75 -180 -116 -273 -21 -47 -38
-85 -69 -157 -11 -24 -29 -64 -40 -90 -33 -73 -60 -134 -79 -178 -32 -73 -96
-220 -149 -337 -10 -24 -78 -178 -151 -343 -72 -165 -139 -316 -147 -335 -15
-33 -24 -54 -72 -162 -10 -24 -27 -63 -38 -88 -11 -25 -29 -65 -40 -90 -11
-25 -29 -65 -40 -90 -11 -25 -27 -61 -36 -80 -8 -19 -24 -55 -35 -80 -11 -25
-88 -200 -172 -390 -83 -190 -158 -361 -167 -380 -8 -19 -24 -52 -34 -72 -11
-20 -19 -44 -19 -52 0 -18 -27 -46 -45 -46 -7 0 -46 43 -86 96 -41 53 -108
140 -149 193 -41 54 -84 110 -95 125 -11 15 -47 63 -80 105 -33 42 -69 90 -80
105 -11 16 -38 52 -61 80 -22 28 -65 85 -96 126 -31 41 -90 120 -132 175 -42
55 -76 105 -76 112 0 7 19 17 43 23 23 6 56 18 74 26 17 8 36 14 42 14 5 0 49
20 95 45 418 220 637 611 611 1090 -19 352 -243 715 -550 890 -27 16 -54 35
-58 42 -6 11 -263 13 -1367 13 l-1360 0 0 -1729z m5266 948 c22 -44 52 -110
84 -184 10 -22 24 -56 33 -75 9 -19 39 -89 67 -155 28 -66 58 -136 67 -155 9
-19 23 -53 33 -75 10 -22 24 -56 33 -75 9 -19 39 -89 67 -155 28 -66 57 -132
65 -146 8 -14 17 -45 21 -67 l7 -42 -502 0 c-553 0 -527 -3 -498 62 9 18 30
67 47 108 17 41 38 91 47 110 24 53 39 87 73 170 34 83 49 117 73 170 9 19 30
69 47 110 17 41 38 91 47 110 37 82 53 120 91 210 22 52 43 103 46 113 9 28
27 16 52 -34z"/>
</g>
</svg>
