<svg xmlns="http://www.w3.org/2000/svg" viewBox="0 0 24 24"><g fill="none" class="nc-icon-wrapper"><path d="M18.7023 18.0912C19.092 18.1695 19.4738 17.916 19.5607 17.5173C19.6489 17.1123 19.3994 16.7109 19.0033 16.6206L18.9148 16.6006C17.0463 16.1842 14.6279 15.937 12 15.937C9.37207 15.937 6.95369 16.1842 5.08527 16.6006L4.9967 16.6206L4.97824 16.6251C4.59291 16.7234 4.35248 17.1187 4.43937 17.5173C4.52626 17.916 4.90808 18.1695 5.29779 18.0912L5.31635 18.0872L5.3989 18.0686C7.14163 17.6803 9.45149 17.4396 12 17.4396C14.589 17.4396 16.9316 17.688 18.6837 18.0872L18.7023 18.0912Z" fill="currentColor"></path><path d="M22.2652 6.11577C22.671 6.11577 23 5.7794 23 5.36448C23 4.57253 22.3878 4.03478 21.8313 3.69985C21.2247 3.33479 20.3959 3.03196 19.4361 2.78762C17.5052 2.29607 14.8765 2 12 2C9.12352 2 6.49478 2.29608 4.56386 2.78762C3.60406 3.03196 2.77528 3.33479 2.16873 3.69985C1.61224 4.03478 1 4.57253 1 5.36448C1 5.77941 1.32896 6.11577 1.73475 6.11577C2.1351 6.11577 2.46063 5.78837 2.46929 5.38113C2.47442 5.37138 2.52539 5.22875 2.91416 4.99477C3.34651 4.73455 4.02103 4.47427 4.91888 4.24571C6.70323 3.79147 9.20711 3.50258 12 3.50258C14.7929 3.50258 17.2968 3.79147 19.0811 4.24571C19.979 4.47427 20.6535 4.73455 21.0858 4.99477C21.4745 5.22868 21.5255 5.37131 21.5307 5.38113C21.5393 5.78837 21.8649 6.11577 22.2652 6.11577Z" fill="currentColor"></path><path d="M10.9671 7.10571C10.9671 7.6018 10.5737 8.00399 10.0886 8.00399C9.60338 8.00399 9.21004 7.6018 9.21004 7.10571C9.21004 6.60956 9.60338 6.20743 10.0886 6.20743C10.5737 6.20743 10.9671 6.60956 10.9671 7.10571Z" fill="currentColor"></path><path d="M16.4724 14.3909C16.7233 14.3909 16.9568 14.26 17.0918 14.0438C17.2267 13.8275 17.2445 13.5559 17.1388 13.3232L14.3702 7.22575C14.2497 6.96053 13.9898 6.79084 13.7038 6.79083C13.4223 6.79083 13.1659 6.95527 13.0431 7.2134L13.0374 7.22575L10.9681 11.7828C10.8603 12.0202 10.8812 12.298 11.0232 12.5159L12.0276 14.0563L12.0406 14.0757C12.1782 14.2731 12.4009 14.3909 12.6389 14.3909H16.4724ZM12.4746 12.0332L13.7038 9.32619L15.3212 12.8883H13.0321L12.4746 12.0332Z" fill="currentColor"></path><path d="M12.6389 14.3909L12.6642 14.3904C12.9253 14.3812 13.1628 14.2307 13.2867 13.9941C13.4146 13.7498 13.4006 13.4534 13.2502 13.2228L10.6946 9.30306C10.5583 9.09405 10.3289 8.9685 10.0832 8.9685C9.84526 8.9685 9.62253 9.08632 9.48495 9.2837L9.47191 9.30306L6.91625 13.2228C6.76594 13.4534 6.75192 13.7498 6.87978 13.9941C7.00764 14.2384 7.25661 14.3909 7.52759 14.3909L12.6389 14.3909ZM10.0832 11.0742L11.266 12.8883H8.90047L10.0832 11.0742Z" fill="currentColor"></path><path d="M5.01706 21.9863C5.22843 22.0281 5.44755 21.973 5.61607 21.8349C5.79002 21.6923 5.89123 21.4767 5.89123 21.2487V7.31169C5.89122 6.95974 5.65229 6.65495 5.31633 6.57839C4.29693 6.34606 3.51673 6.07141 3.00978 5.78907C2.75597 5.64772 2.60477 5.52303 2.52482 5.43049C2.48844 5.38839 2.47425 5.36211 2.46932 5.35068C2.46212 4.94212 2.13604 4.6132 1.73475 4.6132C1.32896 4.6132 1 4.94955 1 5.36448V19.3015C1 19.729 1.18582 20.0872 1.4235 20.3623C1.65707 20.6327 1.96766 20.8567 2.30684 21.0456C2.98589 21.4238 3.91658 21.7359 4.99665 21.982L5.01706 21.9863ZM4.42172 20.2833C3.83063 20.1085 3.35634 19.9191 3.00978 19.7261C2.75596 19.5847 2.60477 19.46 2.52482 19.3675C2.48889 19.3259 2.4746 19.2998 2.46951 19.2881V7.19548C3.00056 7.4678 3.66512 7.70389 4.42172 7.90386V20.2833Z" fill="currentColor"></path><path d="M18.3839 21.8349C18.5579 21.9775 18.7857 22.0316 19.0034 21.982L19.1042 21.9587C20.1413 21.7163 21.0353 21.412 21.6931 21.0456C22.0323 20.8567 22.3429 20.6327 22.5765 20.3623C22.8142 20.0872 23 19.729 23 19.3015L23 5.36448L22.9998 5.3451C22.9897 4.93913 22.6647 4.6132 22.2652 4.6132C21.8639 4.6132 21.5378 4.94216 21.5306 5.35074C21.5257 5.36221 21.5115 5.38847 21.4752 5.43049C21.3952 5.52303 21.244 5.64771 20.9902 5.78907C20.4833 6.07141 19.703 6.34606 18.6836 6.57839C18.3477 6.65495 18.1088 6.95974 18.1087 7.31169V21.2487C18.1087 21.4767 18.21 21.6923 18.3839 21.8349ZM19.5783 7.90386C20.3349 7.7039 20.9994 7.46783 21.5305 7.19551V19.2881C21.5254 19.2998 21.5111 19.3259 21.4752 19.3675C21.3952 19.46 21.244 19.5847 20.9902 19.7261C20.6436 19.9191 20.1694 20.1085 19.5783 20.2833V7.90386Z" fill="currentColor"></path></g></svg>