<svg xmlns="http://www.w3.org/2000/svg" viewBox="0 0 60 60"><path d="M36.1 3.552c-3.657 1.947-6.71 3.541-6.784 3.544-.074.002-3.015-1.526-6.536-3.396C19.258 1.83 16.329.3 16.27.3c-.059 0-3.743 1.924-8.186 4.275L.006 8.85l-.003.664-.003.664 8.175 4.326c4.496 2.378 8.205 4.352 8.242 4.385.036.034-3.641 2.018-8.171 4.411L.008 27.65l-.004 8.352L0 44.354l2.525 1.34c1.389.737 8.034 4.259 14.767 7.826l12.243 6.486 15.232-8.065L60 43.877V25.324l-15.075 7.988c-8.291 4.393-15.097 7.987-15.125 7.986-.084-.003-12.838-6.772-13.028-6.915-.167-.126-.176-.553-.15-7.757l.028-7.625 6.447 3.413 6.447 3.412.403-.213 15.203-8.049c14.346-7.596 14.801-7.845 14.83-8.136l.031-.301-8.616-4.563c-4.738-2.51-8.622-4.561-8.63-4.558L36.1 3.552" fill="currentColor" fill-rule="evenodd"></path></svg>