<svg xmlns="http://www.w3.org/2000/svg" viewBox="0 0 52 52"><path d="M24.007.094c-3.352.254-6.528 1.125-9.463 2.593C11.72 4.101 9.95 5.383 7.666 7.666 6.177 9.155 5.524 9.931 4.49 11.44 1.83 15.32.255 20.055.031 24.852l-.058 1.235 11.389.006 11.388.007-1.17.205c-4.71.825-9.252 3.012-12.759 6.143C3.465 37.229.356 43.721.028 50.808L-.027 52H52V-.023l-1.105.059c-2.713.145-4.92.553-7.235 1.339a26.035 26.035 0 0 0-14.915 13.002c-1.388 2.777-2.244 5.605-2.609 8.616-.103.853-.119-.473-.127-11.011L26 0l-.542.012c-.298.007-.951.044-1.451.082m.974 12.928c.012 6.59.012 17.841 0 25.003l-.022 13.022H1.04v-.294c0-1.59.617-4.863 1.284-6.813.925-2.703 2.47-5.509 4.247-7.713.91-1.128 2.734-2.947 3.814-3.802 3.561-2.82 7.871-4.673 12.257-5.271l1.105-.15v-.316c0-.173-.026-.614-.056-.978l-.056-.663H1.018l.06-.802C1.715 15.769 6.502 8.27 13.919 4.133c2.725-1.52 5.994-2.584 8.961-2.918.5-.056.988-.113 1.083-.127.096-.013.359-.03.585-.036l.411-.012.022 11.982M50.96 26.043v25.004H39.005c-6.575 0-11.972-.03-11.993-.065-.022-.036-.005-.475.037-.975a25.18 25.18 0 0 1 4.197-12.004 25.539 25.539 0 0 1 6.434-6.568c3.425-2.403 7.016-3.764 11.547-4.376l.476-.065-.03-.909c-.017-.499-.048-.938-.07-.973-.022-.036-5.126-.065-11.343-.065H26.957l.039-.369c.021-.202.083-.817.136-1.365.183-1.887.75-4.289 1.441-6.11.798-2.103 2.466-5.037 3.844-6.76.859-1.075 2.795-3.011 3.896-3.897 3.899-3.137 8.463-4.976 13.52-5.45.167-.015.489-.035.715-.042l.412-.014v25.003m-3.25.225c-7.651 1.341-14.088 5.752-18.074 12.385-1.796 2.989-3.073 6.728-3.5 10.251-.103.857-.119-.442-.127-10.922L26 26.087l11.332.007 11.331.007-.953.167" fill-rule="evenodd"></path></svg>