<svg xmlns="http://www.w3.org/2000/svg" viewBox="0 0 24 24"><g fill="none" class="nc-icon-wrapper"><path d="M8.54819 3.49402H9.42188C10.2761 3.4623 10.2755 2.2359 9.42188 2.20448H8.54819C7.69393 2.2362 7.69457 3.4626 8.54819 3.49402Z" fill="currentColor"></path><path d="M9.42188 20.506H8.54819C7.69393 20.5377 7.69457 21.7641 8.54819 21.7955H9.42188C10.2761 21.7638 10.2755 20.5374 9.42188 20.506Z" fill="currentColor"></path><path d="M1.64453 7.98308C2.00048 7.98308 2.28906 7.6944 2.28906 7.33831V6.30238C2.25735 5.4478 1.03141 5.44845 1 6.30238V7.33831C1 7.6944 1.28858 7.98308 1.64453 7.98308Z" fill="currentColor"></path><path d="M1.64453 14.8893C2.00048 14.8893 2.28906 14.6006 2.28906 14.2445V13.2086C2.25735 12.354 1.03141 12.3546 1 13.2086V14.2445C1 14.6006 1.28858 14.8893 1.64453 14.8893Z" fill="currentColor"></path><path d="M5.09634 3.49402H6.13193C6.98619 3.4623 6.98555 2.2359 6.13193 2.20448H5.09634C4.24208 2.2362 4.24272 3.4626 5.09634 3.49402Z" fill="currentColor"></path><path d="M6.13193 20.506H5.09634C4.24208 20.5377 4.24272 21.7641 5.09634 21.7955H6.13193C6.98615 21.7638 6.9855 20.5374 6.13193 20.506Z" fill="currentColor"></path><path d="M1.64453 11.4362C2.00048 11.4362 2.28906 11.1475 2.28906 10.7914V9.75547C2.25735 8.90089 1.03141 8.90154 1 9.75547V10.7914C1 11.1475 1.28858 11.4362 1.64453 11.4362Z" fill="currentColor"></path><path d="M1.64453 18.3424C2.00048 18.3424 2.28906 18.0537 2.28906 17.6976V16.6617C2.25735 15.8071 1.03141 15.8078 1 16.6617V17.6976C1 18.0537 1.28858 18.3424 1.64453 18.3424Z" fill="currentColor"></path><path d="M2.67939 2.20448C2.23075 2.20448 1.80893 2.37925 1.49165 2.6967C0.980062 3.16171 0.652555 4.46272 1.64453 4.52965C2.00048 4.52965 2.28906 4.24058 2.28906 3.88449C2.28906 3.78172 2.33079 3.68109 2.40336 3.60836C2.47598 3.53571 2.57661 3.49402 2.67939 3.49402C3.53365 3.46217 3.53296 2.23573 2.67939 2.20448Z" fill="currentColor"></path><path d="M2.67939 20.506C2.46923 20.5097 2.2852 20.3251 2.28906 20.1148C2.25735 19.2605 1.03132 19.2613 1 20.1155C1 20.5641 1.17458 20.9859 1.49178 21.3034C1.80893 21.6207 2.23071 21.7955 2.67939 21.7955C3.53365 21.7636 3.53296 20.5372 2.67939 20.506Z" fill="currentColor"></path><path d="M21.3199 2.20448H14.5781C14.2222 2.20448 13.9336 2.49316 13.9336 2.84925V8.72985C13.9803 8.67088 14.0307 8.61431 14.0846 8.56032C14.8398 7.805 16.0627 7.80379 16.8191 8.56041L18.8902 10.6323C19.6403 11.3521 19.6403 12.648 18.8901 13.3679L16.8191 15.4396C16.0639 16.195 14.841 16.1963 14.0846 15.4396C14.0306 15.3857 13.9803 15.3291 13.9336 15.2702V21.1508C13.9336 21.5069 14.2222 21.7956 14.5781 21.7956H21.3199C22.251 21.7956 23 21.0414 23 20.1148V3.88522C23 2.95555 22.2478 2.20448 21.3199 2.20448Z" fill="currentColor"></path><path d="M14.9961 13.616C14.7444 13.8677 14.7444 14.276 14.9961 14.5278C15.2478 14.7796 15.6559 14.7796 15.9076 14.5278L17.9787 12.4559C18.2304 12.2042 18.2304 11.7959 17.9787 11.5441L15.9076 9.47224C15.6559 9.22048 15.2478 9.22048 14.9961 9.47224C14.7444 9.724 14.7444 10.1323 14.9961 10.3841L15.9669 11.3552H13.9195C13.7178 10.756 13.2435 10.2815 12.6445 10.0798V1.64069C12.6128 0.786114 11.3869 0.786758 11.3555 1.64069V10.0798C10.7565 10.2815 10.2822 10.7561 10.0805 11.3552H8.03312L9.00396 10.384C9.25567 10.1323 9.25567 9.724 9.00396 9.4722C8.75229 9.22044 8.34418 9.22044 8.09247 9.4722L6.02137 11.5441C5.76966 11.7958 5.76966 12.2041 6.02137 12.4559L8.09247 14.5278C8.34413 14.7795 8.75225 14.7795 9.00396 14.5278C9.25567 14.276 9.25567 13.8677 9.00396 13.6159L8.03312 12.6448H10.0805C10.2822 13.244 10.7565 13.7185 11.3555 13.9202V22.3593C11.3872 23.2139 12.6131 23.2132 12.6445 22.3593V13.9202C13.2435 13.7185 13.7178 13.2439 13.9195 12.6448H15.9669L14.9961 13.616ZM12 12.7365C11.594 12.7365 11.2638 12.4061 11.2638 12C11.3008 11.0243 12.6994 11.0245 12.7362 12C12.7362 12.4061 12.406 12.7365 12 12.7365Z" fill="currentColor"></path></g></svg>