<svg xmlns="http://www.w3.org/2000/svg" viewBox="0 0 36 36"><path d="M2.744 3.3C1.719 3.431.772 4.375.598 5.441c-.077.471-.077 24.647 0 25.118.174 1.062 1.077 1.969 2.132 2.141.492.081 30.048.081 30.54 0 1.055-.172 1.958-1.079 2.132-2.141.079-.48.077-24.648-.002-25.129-.127-.779-.746-1.596-1.455-1.921-.472-.216-.986-.266-2.73-.268L29.64 3.24V5.4H6.36V3.24l-1.635.008c-.899.004-1.791.028-1.981.052M5.34 15.9v11.64H4.093c-1.39 0-1.761.059-2.248.359l-.285.176V16.849c0-7.894.019-11.29.065-11.442.141-.469.564-.904 1.045-1.074.103-.036.715-.066 1.425-.068L5.34 4.26V15.9M33.508 4.408c.304.151.633.48.784.784.116.234.118.438.133 11.561l.016 11.323-.286-.176c-.487-.301-.858-.36-2.248-.36H30.66V4.254l1.305.018c1.154.016 1.332.032 1.543.136M29.64 7.98V9.6H6.36V6.36h23.28v1.62m-7.44 4.23v1.59h.96v-3.18h6.48v10.56h-6.48V15.9h-.96v11.64h-3.185l.018.495.017.495 7.17.03c6.954.029 7.175.033 7.35.146.604.388.835.779.838 1.414.002.531-.109.803-.481 1.176-.485.486 1.005.444-15.927.444s-15.442.042-15.927-.444c-.372-.373-.483-.645-.481-1.176.003-.635.234-1.026.838-1.414.175-.113.396-.117 7.35-.146l7.17-.03.017-.495.018-.495H13.8V16.5H6.36v-5.88H22.2v1.59M12.84 22.5v5.04H6.36V17.46h6.48v5.04m16.8 2.37v2.67h-6.48V22.2h6.48v2.67" fill-rule="evenodd"></path></svg>