<svg xmlns="http://www.w3.org/2000/svg" viewBox="0 0 15 15"><path d="M4.013.992a.409.409 0 0 0-.216.221c-.04.086-.046.169-.046.616l-.001.517-.619.01c-.69.011-.754.023-1.025.187a1.428 1.428 0 0 0-.633.786l-.06.184v7.975l.06.183c.15.458.533.821.993.939.138.036.661.04 5.034.04 4.359 0 4.897-.004 5.032-.039.398-.104.743-.386.92-.755.156-.323.15-.126.142-4.438l-.006-3.93-.067-.182a1.435 1.435 0 0 0-.627-.763c-.271-.164-.335-.176-1.025-.187l-.619-.01v-.511c0-.533-.015-.627-.12-.743a.512.512 0 0 0-.355-.142.392.392 0 0 0-.328.142c-.129.139-.134.162-.143.727l-.008.531H4.704l-.008-.531c-.007-.436-.016-.545-.05-.606a.578.578 0 0 0-.254-.236.576.576 0 0 0-.379.015m-.262 2.564c0 .219.01.304.046.383.094.206.316.32.519.265.156-.041.226-.093.303-.225.059-.101.067-.144.077-.409l.01-.295h5.588l.01.295c.01.265.018.308.077.409.153.261.469.319.696.128.135-.114.172-.231.172-.553l.001-.283.531.008c.436.007.545.016.607.05a.581.581 0 0 1 .235.254c.017.044.027.351.027.819v.748H2.35v-.751c0-.574.008-.77.034-.831.041-.1.194-.237.285-.257.038-.009.08-.019.094-.024.013-.004.241-.009.506-.01l.481-.002.001.281m8.899 5.167c0 1.793-.008 2.646-.027 2.694a.527.527 0 0 1-.26.261c-.097.044-.28.046-4.863.046s-4.766-.002-4.862-.046a.525.525 0 0 1-.261-.261c-.019-.048-.027-.901-.027-2.694V6.1h10.3v2.623" fill="currentColor" fill-rule="evenodd"></path></svg>