<svg xmlns="http://www.w3.org/2000/svg" viewBox="0 0 24 24"><g fill="none" class="nc-icon-wrapper"><path d="M17.5814 2H6.4186C5.24672 2 4.12283 2.46553 3.29418 3.29418C2.46553 4.12283 2 5.24672 2 6.4186V17.5814C2 18.7533 2.46553 19.8772 3.29418 20.7058C4.12283 21.5345 5.24672 22 6.4186 22H17.5814C18.7533 22 19.8772 21.5345 20.7058 20.7058C21.5345 19.8772 22 18.7533 22 17.5814V6.4186C22 5.24672 21.5345 4.12283 20.7058 3.29418C19.8772 2.46553 18.7533 2 17.5814 2ZM20.6047 6.4186V6.65116H17.9163L15.3116 3.39535H17.5814C18.3825 3.3978 19.15 3.71711 19.7164 4.28355C20.2829 4.84999 20.6022 5.61754 20.6047 6.4186ZM10.4744 6.65116L7.86977 3.39535H13.5256L16.1302 6.65116H10.4744ZM6.11163 3.42326L8.68837 6.65116H3.39535V6.4186C3.39631 5.67146 3.67475 4.9513 4.17665 4.39783C4.67855 3.84437 5.36813 3.49705 6.11163 3.42326ZM17.5814 20.6047H6.4186C5.61754 20.6022 4.84999 20.2829 4.28355 19.7164C3.71711 19.15 3.3978 18.3825 3.39535 17.5814V8.04651H20.6047V17.5814C20.6022 18.3825 20.2829 19.15 19.7164 19.7164C19.15 20.2829 18.3825 20.6022 17.5814 20.6047Z" fill="currentColor"></path><path d="M15.2093 12.3721L12.5954 11.0698C12.2638 10.9012 11.8943 10.8212 11.5227 10.8375C11.151 10.8538 10.79 10.9658 10.4744 11.1628C10.1581 11.3593 9.89721 11.6333 9.71651 11.9589C9.5358 12.2845 9.44126 12.6509 9.44186 13.0233V15.6279C9.44126 16.0003 9.5358 16.3667 9.71651 16.6922C9.89721 17.0178 10.1581 17.2919 10.4744 17.4884C10.8192 17.6988 11.2147 17.8114 11.6186 17.814C11.9581 17.8154 12.2929 17.7356 12.5954 17.5814L15.2093 16.2791C15.5715 16.0972 15.876 15.8181 16.0887 15.4732C16.3015 15.1282 16.4142 14.7309 16.4142 14.3256C16.4142 13.9203 16.3015 13.523 16.0887 13.178C15.876 12.833 15.5715 12.554 15.2093 12.3721ZM14.586 15.0233L12 16.3349C11.8837 16.4009 11.7523 16.4357 11.6186 16.4357C11.4849 16.4357 11.3535 16.4009 11.2372 16.3349C11.1229 16.2646 11.0286 16.166 10.9634 16.0487C10.8983 15.9314 10.8644 15.7993 10.8651 15.6651V13.0233C10.8644 12.8891 10.8983 12.7569 10.9634 12.6396C11.0286 12.5223 11.1229 12.4238 11.2372 12.3535C11.3589 12.2741 11.5012 12.232 11.6465 12.2326C11.7692 12.2327 11.8903 12.2613 12 12.3163L14.614 13.6279C14.746 13.6905 14.8576 13.7893 14.9357 13.9128C15.0138 14.0363 15.0553 14.1794 15.0553 14.3256C15.0553 14.4717 15.0138 14.6149 14.9357 14.7384C14.8576 14.8619 14.746 14.9607 14.614 15.0233H14.586Z" fill="currentColor"></path></g></svg>