<svg xmlns="http://www.w3.org/2000/svg" viewBox="0 0 24 24"><g fill="none" class="nc-icon-wrapper"><path d="M17.6875 11.75C17.6875 10.7109 17.4323 9.76302 16.9219 8.90625C16.4297 8.04948 15.737 7.35677 14.8438 6.82812C13.9505 6.31771 13.0026 6.0625 12 6.0625C10.9974 6.0625 10.0495 6.31771 9.15625 6.82812C8.26302 7.35677 7.57031 8.04948 7.07812 8.90625C6.56771 9.76302 6.3125 10.7109 6.3125 11.75C6.3125 12.7891 6.56771 13.737 7.07812 14.5938C7.57031 15.4505 8.26302 16.1432 9.15625 16.6719C10.0495 17.1823 10.9974 17.4375 12 17.4375C13.0026 17.4375 13.9505 17.1823 14.8438 16.6719C15.737 16.1432 16.4297 15.4505 16.9219 14.5938C17.4323 13.737 17.6875 12.7891 17.6875 11.75ZM5 11.75C5.01823 10.474 5.32812 9.30729 5.92969 8.25C6.54948 7.19271 7.40625 6.33594 8.5 5.67969C9.61198 5.0599 10.7786 4.75 12 4.75C13.2214 4.75 14.388 5.0599 15.5 5.67969C16.5938 6.33594 17.4505 7.19271 18.0703 8.25C18.6719 9.30729 18.9818 10.474 19 11.75C18.9818 13.026 18.6719 14.1927 18.0703 15.25C17.4505 16.3073 16.5938 17.1641 15.5 17.8203C14.388 18.4401 13.2214 18.75 12 18.75C10.7786 18.75 9.61198 18.4401 8.5 17.8203C7.40625 17.1641 6.54948 16.3073 5.92969 15.25C5.32812 14.1927 5.01823 13.026 5 11.75ZM11.3438 8.03125C11.3802 7.63021 11.599 7.41146 12 7.375C12.401 7.41146 12.6198 7.63021 12.6562 8.03125V11.3945L14.9805 12.9531C15.3086 13.2083 15.3724 13.5091 15.1719 13.8555C14.9167 14.1836 14.6159 14.2474 14.2695 14.0469L11.6445 12.2969C11.444 12.1693 11.3438 11.987 11.3438 11.75V8.03125Z" fill="currentColor"></path></g></svg>