<svg xmlns="http://www.w3.org/2000/svg" viewBox="0 0 52 52"><path d="M.028 1.217c.392 8.61 5.146 16.591 12.546 21.061 3.072 1.856 6.716 3.128 10.193 3.559.864.107 1.127.25.46.25-.185 0-.895.097-1.577.215-7.122 1.237-13.376 5.34-17.369 11.398C1.746 41.546.237 46.188.028 50.783L-.027 52H52V0H-.027l.055 1.217M50.96 26.043v25.004H1.016l.06-.845c.673-9.434 6.628-17.698 15.404-21.375 2.32-.972 4.931-1.605 7.548-1.831l.672-.057v-1.882l-.368-.047a70.34 70.34 0 0 0-1.235-.141c-4.162-.446-8.427-2.151-12.021-4.806-1.272-.938-3.458-3.038-4.467-4.29-2.247-2.787-3.94-6.141-4.789-9.485-.438-1.73-.78-3.917-.78-4.997V1.04h49.92v25.003M25.458 1.97l-.411.033V49.984l.325.054c.178.029.622.054.985.054l.661.001.061-.715c.231-2.709 1.158-5.865 2.513-8.558 1.386-2.754 2.808-4.68 5.091-6.895 3.504-3.4 7.873-5.661 12.724-6.585.623-.119 2.738-.387 3.054-.387.136 0 .152-.101.152-.948v-.948l-.368-.045c-.203-.025-.758-.088-1.235-.141-7.535-.832-14.499-5.326-18.484-11.926-1.895-3.139-3.148-6.903-3.451-10.367l-.059-.671-.573.015c-.315.009-.758.031-.985.048m1.113 3.82c.471 2.101 1.33 4.414 2.387 6.43 1.87 3.567 4.88 6.933 8.309 9.292 3.387 2.331 7.81 3.983 11.676 4.362.648.063.788.213.2.213-.183 0-.795.078-1.359.173-8.739 1.477-16.075 7.179-19.646 15.27a27.53 27.53 0 0 0-1.881 6.31c-.15.884-.154.248-.152-21.84.001-19.67.018-22.646.121-21.982.066.422.221 1.219.345 1.772" fill-rule="evenodd"></path></svg>