<svg xmlns="http://www.w3.org/2000/svg" viewBox="0 0 24 24"><g fill="none" class="nc-icon-wrapper"><path d="M6.75 7.8125C6.47656 7.83073 6.33073 7.97656 6.3125 8.25V8.85156L11.043 12.7344C11.3346 12.9531 11.6536 13.0625 12 13.0625C12.3646 13.0625 12.6927 12.9531 12.9844 12.7344L17.6875 8.85156V8.25C17.6693 7.97656 17.5234 7.83073 17.25 7.8125H6.75ZM6.3125 10.5469V15.25C6.33073 15.5234 6.47656 15.6693 6.75 15.6875H17.25C17.5234 15.6693 17.6693 15.5234 17.6875 15.25V10.5469L13.8047 13.7461C13.2578 14.1654 12.6562 14.375 12 14.375C11.3438 14.375 10.7422 14.1654 10.1953 13.7461L6.3125 10.5469ZM5 8.25C5.01823 7.75781 5.19141 7.34766 5.51953 7.01953C5.84766 6.69141 6.25781 6.51823 6.75 6.5H17.25C17.7422 6.51823 18.1523 6.69141 18.4805 7.01953C18.8086 7.34766 18.9818 7.75781 19 8.25V15.25C18.9818 15.7422 18.8086 16.1523 18.4805 16.4805C18.1523 16.8086 17.7422 16.9818 17.25 17H6.75C6.25781 16.9818 5.84766 16.8086 5.51953 16.4805C5.19141 16.1523 5.01823 15.7422 5 15.25V8.25Z" fill="currentColor"></path></g></svg>