<svg xmlns="http://www.w3.org/2000/svg" viewBox="0 0 74 74"><path d="M26.147.076c-4.956.453-9.502 2.012-13.382 4.589-6.808 4.52-11.2 11.394-12.48 19.53-.31 1.97-.308 6.294.003 8.18.527 3.191 1.356 5.78 2.735 8.539l.878 1.757-1.884 6.81C.981 53.226.153 56.31.176 56.334c.024.024 3.104-.803 6.845-1.837l6.802-1.881 1.506.754c4.244 2.123 8.325 3.117 12.802 3.117 5.691 0 10.938-1.554 15.591-4.617 11.94-7.86 16.174-23.344 9.863-36.063-1.526-3.075-3.308-5.504-5.789-7.888C43.481 3.77 38.184 1.168 32.313.313c-1.371-.2-5.031-.341-6.166-.237m4.228 13.237c2.491.637 4.462 2.227 5.589 4.509.302.61.636 1.526.743 2.035.264 1.259.17 3.337-.202 4.437-.65 1.925-1.308 2.795-3.928 5.19l-2.052 1.876-.062 1.741-.061 1.741-2.128.033-2.127.034v-5.413l2.824-2.593c3.276-3.008 3.469-3.278 3.561-5.011.074-1.408-.241-2.215-1.257-3.22-1.024-1.012-1.833-1.327-3.217-1.254-1.211.064-1.924.36-2.769 1.15-.708.662-1.219 1.638-1.324 2.528l-.073.611H19.61v-.437c0-.24.088-.862.195-1.382.659-3.189 3.088-5.738 6.263-6.57 1.211-.318 3.076-.32 4.307-.005m30.38 16.942c-.355 6.301-2.652 12.492-6.552 17.659-4.949 6.556-12.356 11.059-20.496 12.46a34.66 34.66 0 0 1-3.374.387c-.878.044-1.596.105-1.596.135 0 .03.307.577.682 1.215 6.444 10.948 20.1 14.984 31.454 9.295l1.428-.715 5.75 1.589c3.163.874 5.767 1.573 5.787 1.554.019-.02-.681-2.621-1.555-5.781l-1.59-5.746.782-1.584c3.154-6.389 3.353-13.568.556-20.086-2.077-4.841-6.223-9.382-10.562-11.569l-.629-.317-.085 1.504M30.463 41.378v2.159h-4.316V39.22h4.316v2.158" fill="currentColor" fill-rule="evenodd"></path></svg>