<svg xmlns="http://www.w3.org/2000/svg" viewBox="0 0 36 36"><path d="M4.718 3.905a4.093 4.093 0 0 0-1.605.483C1.941 4.996 1.085 6.055.704 7.366L.57 7.83v20.34l.134.464c.391 1.345 1.261 2.401 2.485 3.014 1.049.525-.272.482 14.811.482s13.762.043 14.811-.482c1.224-.613 2.094-1.669 2.485-3.014l.134-.464V7.83l-.134-.464c-.393-1.354-1.267-2.409-2.506-3.022-.83-.41-1.164-.461-3.09-.468l-1.65-.006-.015 4.155-.016 4.155h-3.481L21.3 9.48c-1.781-1.485-3.266-2.7-3.3-2.7-.034 0-1.519 1.215-3.3 2.7l-3.238 2.7H7.981l-.016-4.155L7.95 3.87l-1.38-.008c-.759-.004-1.592.016-1.852.043M6.96 13.8v8.94H5.794c-1.344 0-1.783.069-2.482.393-.524.242-1.234.762-1.542 1.129l-.208.248v-8.16c0-9.049-.019-8.603.398-9.45.307-.623 1.016-1.333 1.64-1.64.646-.319 1.057-.39 2.295-.395L6.96 4.86v8.94m24.57-8.85c1.355.285 2.535 1.465 2.82 2.82.075.357.088 1.633.089 8.564l.001 8.144-.375-.374a4.87 4.87 0 0 0-1.459-1.01c-.628-.285-1.096-.354-2.4-.354H29.04V4.86l1.035.001c.676.001 1.181.032 1.455.089m-10.603 5.52 2.886 2.4.004 4.935.003 4.935h-3.18v-5.28h-5.28v5.28h-3.18l.004-4.935.003-4.935 2.892-2.41c1.59-1.326 2.907-2.406 2.926-2.4.02.005 1.334 1.09 2.922 2.41m-9.767 7.95v5.28h5.22v-5.28h3.24v5.28h5.22V13.14h3.18v10.549l1.725.026c1.913.028 2.047.05 2.775.449.555.305 1.231 1.008 1.516 1.576a3.752 3.752 0 0 1 .004 3.36c-.165.336-.344.572-.706.931-.554.551-1.007.816-1.69.99-.454.117-.714.119-13.644.119s-13.19-.002-13.644-.119c-.683-.174-1.136-.439-1.69-.99-.362-.359-.541-.595-.706-.931a3.772 3.772 0 0 1-.002-3.356c.276-.561.96-1.271 1.522-1.58.728-.399.862-.421 2.775-.449l1.725-.026V13.14h3.18v5.28m-.54 9.03v.51h14.76v-1.02H10.62v.51" fill-rule="evenodd"></path></svg>