<svg xmlns="http://www.w3.org/2000/svg" viewBox="0 0 52 52"><path d="M0 8.53v8.531l.498.051c2.472.253 4.122.981 5.749 2.535 3.906 3.732 3.466 10.227-.914 13.483-1.364 1.014-2.876 1.578-4.705 1.754l-.628.06V52.015l.628-.049c.346-.026.999-.071 1.452-.099a23.484 23.484 0 0 0 3.553-.529A26.07 26.07 0 0 0 21.727 40.3c2.532-3.796 4.021-8.309 4.266-12.925.339-6.404-1.612-12.509-5.619-17.582-.873-1.104-2.959-3.189-4.081-4.077C12.685 2.859 8.359.965 3.943.311 3.088.184.957.001.325 0H0v8.53m25.935-.018.022 8.512.976.109c3.634.405 6.593 2.891 7.599 6.385.588 2.042.383 4.506-.527 6.32-.691 1.378-1.693 2.573-2.861 3.41-1.192.853-2.983 1.502-4.516 1.635l-.715.062v8.479c0 4.786.034 8.5.077 8.526.042.026.694.008 1.449-.04 6.46-.411 12.101-2.894 16.697-7.351 4.148-4.024 6.712-9.046 7.615-14.919.162-1.052.194-1.63.198-3.553.007-2.749-.145-4.078-.73-6.414C48.698 9.616 40.372 1.988 30.123.347 29.124.187 27.064.001 26.281 0h-.369l.023 8.512M3.51 1.257c5.866.807 11.352 3.754 15.247 8.19 3.437 3.914 5.506 8.55 6.129 13.736.163 1.363.138 4.578-.047 5.937-.539 3.953-1.808 7.373-3.937 10.613-1.729 2.631-4.458 5.358-7.088 7.082-2.95 1.935-6.25 3.231-9.654 3.791-.858.141-2.692.354-3.055.354-.036 0-.056-3.4-.044-7.556l.022-7.556.607-.104a9.933 9.933 0 0 0 7.239-5.448c2.246-4.626.624-10.108-3.772-12.747-1.187-.713-3.015-1.342-3.897-1.342h-.22V1.018l.802.06c.441.033 1.191.114 1.668.179m26.275.051c4.098.617 7.913 2.23 11.338 4.794 1.239.928 3.633 3.28 4.551 4.471 2.092 2.717 3.691 5.932 4.501 9.053.548 2.109.785 4.037.784 6.362-.002 3.091-.471 5.779-1.499 8.592-2.41 6.596-7.659 11.994-14.187 14.587-2.41.958-4.78 1.497-7.692 1.749l-.629.055.023-7.561.022-7.562.691-.116c4.723-.798 8.192-4.919 8.192-9.732 0-2.778-1.05-5.241-3.053-7.159a9.798 9.798 0 0 0-4.624-2.505c-.521-.118-1.015-.215-1.098-.215-.143-.001-.152-.419-.152-7.553V1.016l.845.06a31.14 31.14 0 0 1 1.987.232" fill-rule="evenodd"></path></svg>