<svg xmlns="http://www.w3.org/2000/svg" viewBox="0 0 19 19"><path d="M2.085.032A2.433 2.433 0 0 0 .661.818c-.331.36-.515.717-.611 1.184a2.492 2.492 0 0 0 .733 2.31c.324.308.67.499 1.149.632.197.056.921.055 1.14-.001A2.461 2.461 0 0 0 4.26 4.26c.519-.518.729-1.031.726-1.774-.002-.424-.022-.539-.163-.914C4.591.953 3.979.366 3.331.14A2.766 2.766 0 0 0 2.085.032m6.993.001a2.486 2.486 0 0 0-1.274.639c-.496.464-.751 1-.794 1.671-.048.743.197 1.386.73 1.919.387.387.841.625 1.351.708.279.045 7.537.045 7.816 0a2.552 2.552 0 0 0 2.012-1.82c.083-.307.099-.809.036-1.124a2.342 2.342 0 0 0-.616-1.208 2.534 2.534 0 0 0-1.149-.73l-.232-.071-3.864-.005C10.969.009 9.162.018 9.078.033m-5.964 1.1c.24.112.553.391.677.602.256.437.264 1.074.017 1.495-.118.203-.394.483-.57.578-.266.144-.492.192-.831.175-.268-.013-.333-.028-.541-.128a1.66 1.66 0 0 1-.735-.742c-.098-.207-.102-.231-.102-.613 0-.395.001-.399.119-.638a1.59 1.59 0 0 1 .651-.684c.26-.139.383-.163.768-.153.299.007.357.019.547.108m14.019.013c.312.154.567.409.721.721.116.234.117.239.117.633 0 .382-.004.406-.102.613a1.675 1.675 0 0 1-.737.745l-.238.116-3.813.009c-3.43.007-3.832.003-3.989-.043a1.304 1.304 0 0 1-.624-.366c-.345-.332-.474-.668-.449-1.173.013-.277.027-.336.128-.541.189-.381.596-.725.961-.812.072-.017 1.71-.027 3.956-.024l3.833.005.236.117M2.015 7.049c-.792.143-1.534.757-1.842 1.524a2.62 2.62 0 0 0 0 1.854c.228.568.736 1.1 1.29 1.351a2.53 2.53 0 0 0 2.315-.127c.291-.172.701-.581.871-.87a2.5 2.5 0 0 0 0-2.562c-.153-.259-.529-.647-.8-.825-.519-.339-1.179-.463-1.834-.345m7.002-.001c-.913.165-1.686.89-1.943 1.82-.079.285-.079.979 0 1.264a2.57 2.57 0 0 0 1.794 1.796c.193.055.424.058 4.131.058 4.358 0 4.048.014 4.538-.208a2.643 2.643 0 0 0 1.29-1.351 2.62 2.62 0 0 0 0-1.854 2.644 2.644 0 0 0-1.376-1.388c-.449-.188-.414-.187-4.48-.184-3.032.002-3.753.011-3.954.047M2.916 8.063c.254.075.401.159.588.336.331.314.486.663.486 1.101 0 .586-.341 1.118-.879 1.372-.205.096-.23.101-.611.101-.394 0-.399-.001-.633-.117a1.593 1.593 0 0 1-.721-.721c-.116-.234-.117-.239-.117-.635s.001-.401.117-.635c.192-.389.597-.732.964-.818.203-.048.619-.04.806.016m13.983-.007c.397.105.759.412.955.809.116.234.117.239.117.635s-.001.401-.117.635a1.593 1.593 0 0 1-.721.721l-.236.117H9.104l-.215-.102c-.242-.115-.555-.394-.678-.604a1.595 1.595 0 0 1-.034-1.478c.085-.165.386-.479.557-.579.074-.044.217-.105.316-.137.171-.055.391-.058 3.933-.059 3.082-.001 3.782.006 3.916.042M2.094 14.031c-.937.144-1.761.888-2.013 1.819a2.911 2.911 0 0 0-.036 1.124c.109.537.293.875.699 1.282.547.546 1.138.777 1.884.733.697-.04 1.23-.288 1.702-.793a2.435 2.435 0 0 0 .662-1.856c-.041-.644-.265-1.134-.732-1.6a2.345 2.345 0 0 0-1.166-.668 3.496 3.496 0 0 0-1-.041m7.026 0c-.867.112-1.686.788-1.98 1.635-.209.6-.178 1.297.082 1.871a2.643 2.643 0 0 0 1.351 1.29c.441.176.352.173 4.426.173 3.296 0 3.785-.006 3.999-.05.515-.105.858-.295 1.258-.694.406-.407.59-.745.699-1.282a2.911 2.911 0 0 0-.036-1.124 2.524 2.524 0 0 0-2.051-1.819c-.297-.041-7.429-.041-7.748 0M2.942 15.07a1.492 1.492 0 0 1 1.048 1.448c0 .421-.149.76-.471 1.066-.737.703-1.913.48-2.373-.45-.116-.235-.117-.24-.117-.634 0-.382.004-.406.102-.612.115-.243.393-.556.604-.679.34-.2.831-.256 1.207-.139m13.996 0c.105.032.252.095.327.139.211.123.489.437.604.679.098.206.102.23.102.612 0 .394-.001.399-.117.634a1.533 1.533 0 0 1-1.166.852c-.315.04-7.063.04-7.378 0a1.542 1.542 0 0 1-1.163-.846c-.101-.205-.115-.264-.128-.541-.024-.486.086-.794.4-1.124.204-.213.373-.321.631-.404.171-.054.392-.058 3.938-.059 3.595-.002 3.766.001 3.95.058" fill-rule="evenodd"></path></svg>