<svg xmlns="http://www.w3.org/2000/svg" viewBox="0 0 52 52"><path d="M24.05.051c-1.84.141-2.755.235-3.729.38-6.523.977-12.164 3.559-15.907 7.282C1.737 10.374.256 13.36.029 16.555l-.055.778 12.168.011c10.847.01 12.023.023 10.831.127-2.641.231-4.912.63-7.104 1.25C7.911 20.97 2.086 25.751.478 31.354c-.241.842-.477 2.271-.477 2.901L0 34.667l12.068.012c7.096.007 11.676.041 11.115.083-5.296.394-10.413 1.895-14.287 4.189C3.473 42.163.367 46.468.028 51.242L-.026 52h52.052l-.055-.779c-.607-8.548-10.4-15.51-23.154-16.459-.561-.042 4.025-.076 11.128-.083l12.081-.012-.054-.759c-.389-5.478-4.51-10.425-11.25-13.509-3.506-1.604-7.243-2.539-11.695-2.928-1.192-.104-.016-.117 10.83-.127l12.168-.011-.06-.801c-.24-3.206-1.707-6.159-4.382-8.819C43.444 3.596 37.04.906 29.64.175c-.957-.094-4.849-.18-5.59-.124m6.24 1.194c5.345.66 9.767 2.19 13.52 4.677 3.235 2.144 5.615 4.998 6.591 7.906.193.575.559 2.191.559 2.468 0 .054-8.989.084-24.96.084s-24.96-.03-24.96-.084c0-.046.074-.466.165-.935.79-4.073 3.754-7.677 8.562-10.409 3.438-1.954 7.975-3.327 12.333-3.733.548-.051 1.133-.108 1.3-.127.732-.084 5.908.031 6.89.153m-.043 17.342c6.683.825 12.053 3.034 16.087 6.615 2.277 2.022 4.022 4.92 4.448 7.388.054.308.118.667.144.798l.048.239H1.043l.054-.412c.152-1.175.704-2.834 1.305-3.922 1.437-2.6 3.678-4.805 6.785-6.676 3.818-2.3 8.966-3.808 14.3-4.189 1.096-.079 5.717.03 6.76.159M27.95 35.745c5.324.169 10.89 1.767 15.072 4.327 4.258 2.607 6.971 6.031 7.733 9.758.112.55.186 1.049.164 1.108-.032.087-5.094.109-24.911.109-13.839 0-24.892-.033-24.917-.075-.026-.041.013-.421.087-.845 1.168-6.751 8.968-12.484 19.084-14.026 1.857-.283 4.894-.496 5.998-.421.167.011.927.041 1.69.065" fill-rule="evenodd"></path></svg>