<svg xmlns="http://www.w3.org/2000/svg" viewBox="0 0 14 14"><g fill="none" class="nc-icon-wrapper"><path d="M6.99998 3.00928C5.56684 3.00928 4.40088 4.17524 4.40088 5.60838C4.40088 7.04152 5.56684 8.20749 6.99998 8.20749C8.43313 8.20749 9.59909 7.04152 9.59909 5.60838C9.59909 4.17524 8.43315 3.00928 6.99998 3.00928ZM6.99998 7.11314C6.17027 7.11314 5.49523 6.4381 5.49523 5.60838C5.49523 4.77866 6.17027 4.10363 6.99998 4.10363C7.8297 4.10363 8.50474 4.77866 8.50474 5.60838C8.50474 6.4381 7.8297 7.11314 6.99998 7.11314Z" fill="currentColor"></path><path d="M6.99997 0C3.90737 0 1.39136 2.51604 1.39136 5.60861V5.76365C1.39136 7.32771 2.28807 9.15034 4.05666 11.1808C5.33876 12.6528 6.60294 13.6791 6.6561 13.7221L6.99997 14L7.34385 13.7222C7.39703 13.6792 8.66121 12.6528 9.94328 11.1808C11.7118 9.15034 12.6086 7.32774 12.6086 5.76368V5.60864C12.6086 2.51604 10.0926 0 6.99997 0ZM11.5142 5.76368C11.5142 8.40686 8.10854 11.6065 6.99997 12.5778C5.8911 11.6062 2.48571 8.40667 2.48571 5.76368V5.60864C2.48571 3.11948 4.51081 1.09438 6.99997 1.09438C9.48913 1.09438 11.5142 3.11948 11.5142 5.60864V5.76368Z" fill="currentColor"></path></g></svg>