<svg xmlns="http://www.w3.org/2000/svg" viewBox="0 0 24 24"><g fill="none" class="nc-icon-wrapper"><path d="M16.1875 10C16.151 8.88802 15.7682 7.95833 15.0391 7.21094C14.2917 6.48177 13.362 6.09896 12.25 6.0625C11.138 6.09896 10.2083 6.48177 9.46094 7.21094C8.73177 7.95833 8.34896 8.88802 8.3125 10C8.3125 10.3464 8.44922 10.8659 8.72266 11.5586C9.03255 12.2513 9.42448 12.9805 9.89844 13.7461C10.2995 14.3841 10.7005 14.9948 11.1016 15.5781C11.5208 16.1615 11.9036 16.6719 12.25 17.1094C12.5964 16.6719 12.9792 16.1615 13.3984 15.5781C13.8177 14.9948 14.2188 14.3841 14.6016 13.7461C15.0755 12.9805 15.4674 12.2513 15.7773 11.5586C16.0508 10.8659 16.1875 10.3464 16.1875 10ZM17.5 10C17.4635 10.8203 17.1719 11.7682 16.625 12.8438C16.0599 13.9193 15.4219 14.9583 14.7109 15.9609C14 16.9818 13.3984 17.793 12.9062 18.3945C12.724 18.6133 12.5052 18.7227 12.25 18.7227C11.9948 18.7227 11.776 18.6133 11.5938 18.3945C11.1016 17.793 10.5 16.9818 9.78906 15.9609C9.07812 14.9583 8.4401 13.9193 7.875 12.8438C7.32812 11.7682 7.03646 10.8203 7 10C7.03646 8.50521 7.54688 7.26562 8.53125 6.28125C9.51562 5.29688 10.7552 4.78646 12.25 4.75C13.7448 4.78646 14.9844 5.29688 15.9688 6.28125C16.9531 7.26562 17.4635 8.50521 17.5 10ZM13.125 10C13.125 9.74479 13.043 9.53516 12.8789 9.37109C12.7148 9.20703 12.5052 9.125 12.25 9.125C11.9948 9.125 11.7852 9.20703 11.6211 9.37109C11.457 9.53516 11.375 9.74479 11.375 10C11.375 10.2552 11.457 10.4648 11.6211 10.6289C11.7852 10.793 11.9948 10.875 12.25 10.875C12.5052 10.875 12.7148 10.793 12.8789 10.6289C13.043 10.4648 13.125 10.2552 13.125 10ZM10.0625 10C10.0807 9.17969 10.4453 8.55078 11.1562 8.11328C11.8854 7.71224 12.6146 7.71224 13.3438 8.11328C14.0547 8.55078 14.4193 9.17969 14.4375 10C14.4193 10.8203 14.0547 11.4492 13.3438 11.8867C12.6146 12.2878 11.8854 12.2878 11.1562 11.8867C10.4453 11.4492 10.0807 10.8203 10.0625 10Z" fill="currentColor"></path></g></svg>