<svg xmlns="http://www.w3.org/2000/svg" viewBox="0 0 32 32"><g fill="none" class="nc-icon-wrapper"><path d="M19 10C19 8.89543 19.8954 8 21 8H22C23.1046 8 24 8.89543 24 10V11C24 12.1046 23.1046 13 22 13H21C19.8954 13 19 12.1046 19 11V10Z" fill="currentColor"></path><path d="M8 10C8 8.89543 8.89543 8 10 8H11C12.1046 8 13 8.89543 13 10V11C13 12.1046 12.1046 13 11 13H10C8.89543 13 8 12.1046 8 11V10Z" fill="currentColor"></path><path d="M8 21C8 19.8954 8.89543 19 10 19H11C12.1046 19 13 19.8954 13 21V22C13 23.1046 12.1046 24 11 24H10C8.89543 24 8 23.1046 8 22V21Z" fill="currentColor"></path><path d="M19 21C19 19.8954 19.8954 19 21 19H22C23.1046 19 24 19.8954 24 21V22C24 23.1046 23.1046 24 22 24H21C19.8954 24 19 23.1046 19 22V21Z" fill="currentColor"></path></g></svg>