<svg xmlns="http://www.w3.org/2000/svg" viewBox="0 0 32 32"><g fill="none" class="nc-icon-wrapper"><path d="M16.8125 3C19.0807 3.03385 21.1289 3.59245 22.957 4.67578C24.7852 5.75911 26.2409 7.21484 27.3242 9.04297C28.4076 10.8711 28.9661 12.9193 29 15.1875C28.9661 15.6953 28.6953 15.9661 28.1875 16C27.6797 15.9661 27.4089 15.6953 27.375 15.1875C27.3073 12.2083 26.2747 9.72005 24.2773 7.72266C22.2799 5.72526 19.7917 4.69271 16.8125 4.625C16.3047 4.59115 16.0339 4.32031 16 3.8125C16.0339 3.30469 16.3047 3.03385 16.8125 3ZM17.625 12.75C18.099 12.75 18.4883 12.9023 18.793 13.207C19.0977 13.5117 19.25 13.901 19.25 14.375C19.25 14.849 19.0977 15.2383 18.793 15.543C18.4883 15.8477 18.099 16 17.625 16C17.151 16 16.7617 15.8477 16.457 15.543C16.1523 15.2383 16 14.849 16 14.375C16 13.901 16.1523 13.5117 16.457 13.207C16.7617 12.9023 17.151 12.75 17.625 12.75ZM16 8.6875C16.0339 8.17969 16.3047 7.90885 16.8125 7.875C18.8776 7.94271 20.6042 8.65365 21.9922 10.0078C23.3464 11.3958 24.0573 13.1224 24.125 15.1875C24.0911 15.6953 23.8203 15.9661 23.3125 16C22.8047 15.9661 22.5339 15.6953 22.5 15.1875C22.4661 13.5625 21.9076 12.2253 20.8242 11.1758C19.7747 10.0924 18.4375 9.53385 16.8125 9.5C16.3047 9.46615 16.0339 9.19531 16 8.6875ZM19.707 17.5742C20.3841 16.8294 21.1797 16.6263 22.0938 16.9648L27.7812 19.4023C28.2214 19.6055 28.5599 19.9271 28.7969 20.3672C29 20.7734 29.0508 21.2135 28.9492 21.6875L27.7305 27.375C27.4596 28.3906 26.7995 28.9323 25.75 29C25.4453 29 25.1406 29 24.8359 29C24.599 28.9661 24.362 28.9492 24.125 28.9492C20.1302 28.6107 16.5586 27.4089 13.4102 25.3438C10.2279 23.2786 7.70573 20.5872 5.84375 17.2695C3.98177 13.9857 3.03385 10.3125 3 6.25C3.06771 5.20052 3.60938 4.54036 4.625 4.26953L10.3125 3.05078C10.7865 2.94922 11.2266 3 11.6328 3.20312C12.0729 3.4401 12.3945 3.77865 12.5977 4.21875L15.0352 9.90625C15.3737 10.8203 15.1706 11.6159 14.4258 12.293L12.3945 13.9688C13.7826 16.3385 15.6615 18.2174 18.0312 19.6055L19.707 17.5742ZM25.75 27.375C25.9531 27.375 26.0885 27.2734 26.1562 27.0703L27.375 21.3828C27.4089 21.1797 27.3242 21.0273 27.1211 20.9258L21.4336 18.4883C21.2643 18.4206 21.112 18.4544 20.9766 18.5898L19.3008 20.6719C18.6914 21.2812 17.9974 21.3997 17.2188 21.0273C14.5781 19.5039 12.4961 17.4219 10.9727 14.7812C10.6003 14.0026 10.7188 13.3255 11.3281 12.75L13.4102 11.0234C13.5456 10.888 13.5794 10.7357 13.5117 10.5664L11.0742 4.87891C11.0065 4.67578 10.8542 4.59115 10.6172 4.625L4.92969 5.84375C4.72656 5.91146 4.625 6.04688 4.625 6.25C4.65885 10.1771 5.6237 13.7318 7.51953 16.9141C9.38151 20.0964 11.9036 22.6185 15.0859 24.4805C18.2682 26.3763 21.8229 27.3411 25.75 27.375Z" fill="currentColor"></path></g></svg>