<svg xmlns="http://www.w3.org/2000/svg" viewBox="0 0 24 24"><g fill="none" class="nc-icon-wrapper"><path d="M22 6.4186C22 5.24672 21.5345 4.12283 20.706 3.29418C19.8775 2.46553 18.7538 2 17.5821 2H6.42117C5.24948 2 4.12577 2.46553 3.29726 3.29418C2.46875 4.12283 2.00329 5.24672 2.00329 6.4186V17.5814C1.9989 17.5966 1.9989 17.6127 2.00329 17.6279C2.01554 18.7917 2.4864 19.9037 3.31359 20.7223C4.14078 21.5409 5.25749 22.0001 6.42117 22H17.5821C18.741 21.9977 19.8526 21.54 20.6773 20.7257C21.5019 19.9113 21.9736 18.8055 21.9907 17.6465V6.4186H22ZM6.42117 3.39535H17.5821C18.3831 3.3978 19.1505 3.71711 19.7168 4.28355C20.2832 4.84999 20.6024 5.61754 20.6049 6.4186V15.7209L16.7172 11.2744C16.4701 11.0114 16.1719 10.8018 15.8408 10.6585C15.5096 10.5152 15.1527 10.4413 14.7919 10.4413C14.4311 10.4413 14.0741 10.5152 13.743 10.6585C13.4119 10.8018 13.1136 11.0114 12.8666 11.2744L10.1973 14.3256L9.32302 13.2651C9.08211 12.9761 8.78061 12.7435 8.43987 12.5839C8.09914 12.4244 7.72749 12.3416 7.35125 12.3416C6.97501 12.3416 6.60336 12.4244 6.26263 12.5839C5.92189 12.7435 5.6204 12.9761 5.37948 13.2651L3.39841 15.6558V6.4186C3.40087 5.61754 3.72012 4.84999 4.28647 4.28355C4.85281 3.71711 5.62024 3.3978 6.42117 3.39535ZM17.5821 20.6047H6.42117C5.6614 20.6022 4.93041 20.3137 4.37372 19.7966C3.81702 19.2794 3.47546 18.5716 3.41702 17.814L6.42117 14.1581C6.53369 14.0328 6.67135 13.9325 6.82519 13.8638C6.97903 13.7952 7.14559 13.7597 7.31405 13.7597C7.4825 13.7597 7.64907 13.7952 7.8029 13.8638C7.95674 13.9325 8.0944 14.0328 8.20692 14.1581L9.61134 15.8512C9.67575 15.9295 9.75667 15.9926 9.84832 16.0361C9.93997 16.0795 10.0401 16.1021 10.1415 16.1023C10.2416 16.0998 10.3401 16.077 10.4312 16.0355C10.5223 15.9939 10.6041 15.9344 10.6716 15.8605L13.8711 12.1953C13.9849 12.0754 14.122 11.98 14.2739 11.9147C14.4258 11.8495 14.5894 11.8158 14.7547 11.8158C14.92 11.8158 15.0836 11.8495 15.2355 11.9147C15.3874 11.98 15.5244 12.0754 15.6383 12.1953L20.5398 17.7767C20.4931 18.5339 20.1626 19.2455 19.6144 19.7697C19.0662 20.2939 18.3405 20.592 17.5821 20.6047Z" fill="currentColor"></path><path d="M7.35125 9.90698C7.85712 9.90698 8.35163 9.75694 8.77224 9.47585C9.19286 9.19476 9.52069 8.79523 9.71427 8.32779C9.90786 7.86036 9.95851 7.346 9.85982 6.84977C9.76113 6.35354 9.51753 5.89772 9.15983 5.53996C8.80213 5.1822 8.34639 4.93856 7.85024 4.83985C7.35409 4.74115 6.83982 4.7918 6.37245 4.98542C5.90509 5.17904 5.50563 5.50693 5.22459 5.92761C4.94354 6.34829 4.79353 6.84288 4.79353 7.34884C4.79353 8.0273 5.06301 8.67797 5.54267 9.15771C6.02234 9.63746 6.6729 9.90698 7.35125 9.90698ZM7.35125 6.18605C7.58119 6.18605 7.80597 6.25424 7.99716 6.38201C8.18834 6.50978 8.33736 6.69138 8.42535 6.90386C8.51335 7.11633 8.53637 7.35013 8.49151 7.57569C8.44665 7.80125 8.33592 8.00843 8.17333 8.17105C8.01074 8.33367 7.80358 8.44442 7.57806 8.48928C7.35254 8.53415 7.11878 8.51112 6.90634 8.42311C6.69391 8.33511 6.51233 8.18607 6.38458 7.99485C6.25684 7.80363 6.18865 7.57881 6.18865 7.34884C6.18865 7.04045 6.31114 6.74469 6.52917 6.52662C6.7472 6.30855 7.04291 6.18605 7.35125 6.18605Z" fill="currentColor"></path></g></svg>