<svg xmlns="http://www.w3.org/2000/svg" viewBox="0 0 36 36"><path d="M8.896.602C7.046.796 5.432 2.215 4.905 4.11l-.134.48-.017 11.655L4.737 27.9h-2.11l.03 1.785c.033 1.996.065 2.212.455 3.039.578 1.228 1.708 2.182 3.041 2.568l.477.138H16.8c9.398 0 10.194-.008 10.485-.102.608-.196 1.257-.743 1.541-1.299.282-.551.273-.202.273-9.713l.001-8.954 2.115-.016 2.115-.016v-6.3c0-5.821-.008-6.325-.104-6.624C32.92 1.458 32.078.741 31.11.602c-.496-.07-21.54-.071-22.214 0m19.706 1.065c-.187.206-.404.781-.461 1.22-.035.272-.058 6.214-.059 15.4-.002 12.696-.015 14.987-.086 15.158-.118.281-.492.679-.782.832-.369.195-1.045.185-1.445-.02-.336-.173-.695-.601-.801-.955-.046-.153-.068-1.064-.068-2.814V27.9H5.757l.017-11.655c.016-11.141.021-11.67.127-11.985.445-1.327 1.513-2.344 2.739-2.607.324-.069 2.053-.084 10.224-.088 9.42-.005 9.831-.001 9.738.102m2.823.075c.36.18.551.373.771.778.109.202.115.445.13 6.015l.017 5.805h-3.246l.016-5.775c.017-5.746.018-5.776.144-6.045.403-.852 1.344-1.19 2.168-.778M16.38 5.213v.893l-.277.07c-.436.109-.858.35-1.163.665-.775.795-.848 1.967-.175 2.819.275.347.642.538 2.245 1.167 1.18.463 1.584.705 1.833 1.097.573.903-.249 2.02-1.548 2.104-.812.052-1.77-.263-2.308-.759l-.265-.244-.38.344-.38.345.294.259c.162.142.455.353.651.468.345.202 1.3.559 1.497.559.084 0 .096.114.096.9v.9h1.02v-1.784l.279-.038c.756-.104 1.689-.796 2.033-1.508.153-.318.174-.427.176-.93.002-.536-.01-.593-.201-.943a3.186 3.186 0 0 0-1.087-1.112c-.149-.087-.769-.359-1.38-.605-1.605-.646-1.649-.668-1.832-.907-.349-.458-.201-1.247.296-1.582.701-.473 1.904-.414 2.821.139.196.117.373.193.394.167l.322-.385.282-.338-.287-.183c-.466-.298-1.032-.542-1.498-.646l-.438-.097V4.32h-1.02v.893M8.46 20.01v.51h16.98V19.5H8.46v.51m0 4.23v.48h16.98v-.96H8.46v.48m15.42 6.675c.001 1.097.027 2.157.058 2.355.032.198.151.542.265.765l.206.405h-8.745c-8.512 0-8.757-.003-9.208-.119a4.495 4.495 0 0 1-.835-.315c-.49-.259-1.222-.986-1.497-1.486-.373-.68-.417-.91-.449-2.325l-.028-1.275H23.88v1.995" fill-rule="evenodd"></path></svg>