<svg xmlns="http://www.w3.org/2000/svg" viewBox="0 0 36 36"><path d="M19.74 1.357c-.969.889-1.188 1.014-1.77 1.011-.555-.003-.717-.094-1.774-.989-.975-.826-.838-.791-1.74-.447-1.253.477-2.646 1.351-3.377 2.118l-.172.18.217 1c.308 1.425.279 1.823-.172 2.358-.215.254-.453.372-1.492.741l-1.009.361c-.147.053-.169.109-.288.729-.162.846-.22 2.11-.129 2.861.088.734.241 1.451.328 1.538.037.038.542.221 1.121.407 1.15.369 1.379.503 1.651.967.245.418.249.761.023 2.031l-.199 1.115.146.158c.268.289 1.012.87 1.542 1.203a9.949 9.949 0 0 0 2.106 1.006l.623.216.572-.525c1.235-1.136 1.385-1.23 1.961-1.234.576-.004.756.091 1.749.926.505.424.961.772 1.013.772.159 0 1.226-.417 1.797-.701.857-.428 1.888-1.154 2.389-1.683l.167-.176-.218-.985c-.305-1.381-.283-1.776.129-2.315.214-.281.531-.445 1.586-.82.511-.181.972-.346 1.024-.367.202-.08.452-1.98.395-3.003-.042-.746-.258-2.006-.361-2.106-.037-.036-.487-.196-.998-.355-.511-.159-1.025-.336-1.14-.393-.476-.239-.836-.815-.84-1.346-.001-.165.084-.784.189-1.377l.191-1.076-.376-.334A10.179 10.179 0 0 0 21.24.852l-.691-.237-.809.742m-3.82 1.099c.325.271.676.544.78.608.496.302 1.403.397 2.039.212.405-.118.883-.446 1.566-1.076l.509-.469.618.262c.34.145.813.377 1.052.517.555.325 1.396.958 1.395 1.049 0 .039-.067.433-.15.875-.082.443-.148.969-.148 1.17.003.733.454 1.598 1.067 2.045.186.136.588.308 1.18.506.646.216.909.331.939.412.154.418.211 1.799.11 2.681-.096.839-.024.755-.916 1.073-.435.155-.917.355-1.07.445-.584.343-.955.784-1.168 1.386-.194.55-.185 1.098.033 2.048l.173.75-.25.226c-.555.504-1.643 1.145-2.475 1.458l-.365.138-.715-.603c-.926-.783-1.3-.966-2.034-.998-.939-.041-1.396.173-2.451 1.146l-.507.467-.404-.153c-.895-.336-2.541-1.346-2.647-1.623-.019-.049.024-.402.095-.784.253-1.356.231-1.749-.138-2.451-.382-.727-.935-1.106-2.157-1.477-.366-.111-.67-.238-.698-.292-.085-.163-.183-1.078-.183-1.71 0-.549.083-1.485.152-1.714.015-.05.209-.155.432-.233 1.345-.474 1.528-.562 1.917-.926a2.58 2.58 0 0 0 .6-.802c.315-.637.335-1.138.088-2.237-.132-.586-.164-.83-.118-.886.129-.154.93-.725 1.408-1.002a10.67 10.67 0 0 1 1.05-.515c.544-.224.565-.228.681-.123.066.059.386.329.71.6m1.381 4.206a3.66 3.66 0 0 0-1.987 1.099c-.672.71-.983 1.475-.993 2.439-.011 1.091.3 1.853 1.07 2.626.402.402.589.539.997.73a3.54 3.54 0 0 0 1.848.347c1.529-.1 2.883-1.223 3.271-2.713.12-.461.12-1.38-.001-1.846-.309-1.19-1.324-2.249-2.486-2.591-.405-.119-1.302-.167-1.719-.091m1.329 1.04c.447.119.794.316 1.149.652.565.534.81 1.109.813 1.901.003.763-.225 1.332-.743 1.857-.54.548-1.111.788-1.877.788-1.964 0-3.228-2.012-2.385-3.797.304-.646 1.053-1.256 1.738-1.418.343-.081.97-.073 1.305.017M3.51 16.949c-1.048.195-2.002.912-2.515 1.89-.413.788-.395.463-.395 7.282 0 4.207.021 6.254.065 6.471.095.461.484 1.229.81 1.597a4.06 4.06 0 0 0 1.61 1.077l.485.164h28.86l.485-.164a4.06 4.06 0 0 0 1.61-1.077c.326-.368.715-1.136.81-1.597.044-.217.065-2.255.064-6.45-.001-6.787.013-6.529-.391-7.297a3.726 3.726 0 0 0-1.132-1.293c-.86-.614-1.258-.687-3.74-.69l-1.875-.002-.015 3.165-.016 3.165H7.77l-.016-3.165-.015-3.165-1.905.005c-1.288.004-2.04.031-2.324.084m3.27 6.061v5.13l-1.485.001c-1.056.001-1.602.026-1.89.087-.501.106-1.156.444-1.552.8l-.299.269.021-4.644c.024-5.138.004-4.875.422-5.525.244-.379.658-.772.997-.945.503-.257.802-.295 2.331-.299l1.455-.004v5.13m25.639-5.04a2.595 2.595 0 0 1 1.622 1.227c.379.654.361.39.384 5.456l.021 4.644-.299-.269c-.396-.356-1.051-.694-1.552-.8-.288-.061-.834-.086-1.89-.087l-1.485-.001V17.88h1.427c1.074 0 1.513.022 1.772.09m-4.159 8.7v2.49l1.995.001c2.157 0 2.297.017 2.839.335.152.089.405.292.561.451 1.372 1.393.755 3.794-1.124 4.374-.377.117-.61.119-14.526.119-15.326 0-14.378.019-15.008-.302-.545-.277-1.128-.995-1.309-1.611-.105-.357-.098-1.135.015-1.52.231-.793.953-1.514 1.763-1.76.222-.067.719-.086 2.279-.086l1.995-.001v-4.98h20.52v2.49" fill-rule="evenodd"></path></svg>