<svg xmlns="http://www.w3.org/2000/svg" viewBox="0 0 19 19"><g fill="none" class="nc-icon-wrapper"><path d="M0 2.5a2.5 2.5 0 0 1 5 0 2.5 2.5 0 0 1-5 0z" fill="currentColor"></path><path d="M7 2.5a2.5 2.5 0 0 1 5 0 2.5 2.5 0 0 1-5 0z" fill="currentColor"></path><path d="M14 2.5a2.5 2.5 0 0 1 5 0 2.5 2.5 0 0 1-5 0z" fill="currentColor"></path><path d="M0 9.5a2.5 2.5 0 0 1 5 0 2.5 2.5 0 0 1-5 0z" fill="currentColor"></path><path d="M7 9.5a2.5 2.5 0 0 1 5 0 2.5 2.5 0 0 1-5 0z" fill="currentColor"></path><path d="M14 9.5a2.5 2.5 0 0 1 5 0 2.5 2.5 0 0 1-5 0z" fill="currentColor"></path><path d="M0 16.5a2.5 2.5 0 0 1 5 0 2.5 2.5 0 0 1-5 0z" fill="currentColor"></path><path d="M7 16.5a2.5 2.5 0 0 1 5 0 2.5 2.5 0 0 1-5 0z" fill="currentColor"></path><path d="M14 16.5a2.5 2.5 0 0 1 5 0 2.5 2.5 0 0 1-5 0z" fill="currentColor"></path></g></svg>