<svg xmlns="http://www.w3.org/2000/svg" xmlns:xlink="http://www.w3.org/1999/xlink" width="64" height="64" viewBox="0 0 64 64"><defs><clipPath id="a"><rect width="64" height="64" transform="translate(1477 662.554)" fill="#fff" stroke="#707070" stroke-width="1"/></clipPath></defs><g transform="translate(-1477 -662.554)" clip-path="url(#a)"><path d="M18.111,0A18.111,18.111,0,0,1,36.221,18.11c0,10-18.111,33.634-18.111,33.634S0,28.113,0,18.11A18.11,18.11,0,0,1,18.111,0Z" transform="translate(1491 668.681)" fill="#fff"/><path d="M18.111,2A16.11,16.11,0,0,0,2,18.11c0,1.364.457,3.965,2.635,8.614a101.651,101.651,0,0,0,6.1,10.86c2.823,4.465,5.674,8.474,7.381,10.809,1.7-2.329,4.544-6.325,7.365-10.784a101.815,101.815,0,0,0,6.1-10.872c2.183-4.656,2.641-7.261,2.641-8.626A16.11,16.11,0,0,0,18.111,2m0-2A18.111,18.111,0,0,1,36.221,18.11c0,10-18.111,33.634-18.111,33.634S0,28.113,0,18.11A18.11,18.11,0,0,1,18.111,0Z" transform="translate(1491 668.681)" fill="#b79258"/><path d="M-131.729-276.846A1.352,1.352,0,0,0-133-275.5a1.372,1.372,0,0,0,1.369,1.378h4.425a4.057,4.057,0,0,1,4.3,4.086,4.019,4.019,0,0,1-4.14,4.227h-8.295v-2.729h8.112a1.5,1.5,0,0,0,1.371-1.486,1.469,1.469,0,0,0-1.411-1.367h-4.448a4.079,4.079,0,0,1-4.215-4.157,4.134,4.134,0,0,1,4.082-4.05h8.071v2.756Z" transform="translate(1637.939 960.369)" fill="#b79258"/></g></svg>