<svg xmlns="http://www.w3.org/2000/svg" viewBox="-1.00 -1.00 68.52 60.01" fill="none"><path d="M35.5341 21.5163L33.2587 17.5598L28.7025 25.4728H37.8095L35.5341 21.5163ZM35.4691 28.4891C35.8537 28.1033 36.1409 27.6141 36.2817 27.0707H30.2357C30.3765 27.6141 30.6637 28.1033 31.0483 28.4891C31.6117 29.0543 32.3973 29.4076 33.2587 29.4076C34.1201 29.4076 34.9002 29.0598 35.4691 28.4891ZM58.4018 16.2826V56.4076H64.9246V20.0598L58.4018 16.2826ZM56.809 14.9022C56.809 14.462 57.1666 14.1033 57.6054 14.1033C57.7679 14.1033 57.9251 14.1522 58.0497 14.2391L66.1219 18.913C66.3765 19.0598 66.5174 19.3261 66.5174 19.6033V57.2065C66.5174 57.6467 66.1598 58.0054 65.721 58.0054H57.6054C57.1666 58.0054 56.809 57.6467 56.809 57.2065V14.9022ZM49.3544 10.587C49.3544 10.1467 49.712 9.78804 50.1508 9.78804C50.5896 9.78804 50.9472 10.1467 50.9472 10.587V57.2065C50.9472 57.6467 50.5896 58.0054 50.1508 58.0054C49.712 58.0054 49.3544 57.6467 49.3544 57.2065V10.587ZM43.2379 57.2065C43.2379 57.6467 42.8804 58.0054 42.4415 58.0054H29.721C29.3147 58.0054 28.9788 57.7011 28.93 57.3098L26.2321 45.0706H18.4253L15.7273 57.3098C15.6786 57.7011 15.3427 58.0054 14.9363 58.0054H0.796388C0.357562 58.0054 0 57.6467 0 57.2065V19.5978C0 19.2772 0.189616 19 0.465914 18.8696L16.6266 9.51087L32.8144 0.13587C32.9391 0.048913 33.0962 0 33.2587 0C33.4321 0 33.5892 0.0543478 33.7192 0.146739L42.7774 5.3913C43.0537 5.5163 43.2433 5.79348 43.2433 6.11957V57.2065H43.2379ZM30.5661 43.4674C31.005 43.4674 31.3625 43.8261 31.3625 44.2663C31.3625 44.7065 31.005 45.0652 30.5661 45.0652H27.8628L30.3657 56.4022H41.6506V6.57609L34.0551 2.17935V15.7663L39.8736 25.875C40.0903 26.2554 39.9603 26.7391 39.581 26.962C39.4564 27.0326 39.321 27.0652 39.1856 27.0652V27.0707H37.907C37.7391 28.0598 37.2677 28.9402 36.5905 29.6196C35.7345 30.4783 34.5589 31.0054 33.2533 31.0054C31.9476 31.0054 30.772 30.4783 29.916 29.6196C29.2388 28.9402 28.7675 28.0598 28.5996 27.0707H27.321C26.8822 27.0707 26.5246 26.712 26.5246 26.2717C26.5246 26.0978 26.5788 25.9402 26.6709 25.8098L32.4515 15.7663V2.17935L17.423 10.8913L1.59278 20.0598V56.4076H14.3025L16.8054 45.0706H14.102C13.6632 45.0706 13.3056 44.712 13.3056 44.2717V26.2717C13.3056 25.8315 13.6632 25.4728 14.102 25.4728C14.5409 25.4728 14.8984 25.8315 14.8984 26.2717V43.4674H30.5661Z" fill="#3E3A39"></path></svg>
