<svg xmlns="http://www.w3.org/2000/svg" viewBox="-1.00 1.04 84.02 55.91" fill="none"><path fill-rule="evenodd" clip-rule="evenodd" d="M55.0926 50.4763V47.4292H46.4921V35.6096L40.4225 32.0957V47.4292H23.7621V50.4763H55.0926ZM55.0926 45.9794V25.0433L38.7761 15.6318L23.7621 24.3061V45.9549H38.9973V29.5647L47.9419 34.7496V45.9549H55.0926V45.9794ZM22.3123 25.1416L16.6359 28.4343V45.9794H22.3123V25.1416ZM56.5424 45.9794H65.7081V15.8284L44.7228 3.71393L23.7621 15.8284V22.6597L38.7761 13.9854L56.5424 24.2569V45.9794ZM23.7621 51.9015V54.5308H82.0246V55.9561H22.3123V51.9015H0V50.4763H22.3123V47.4292H15.2107V27.5989L22.3123 23.4952V14.9929L44.7228 2.04297L67.1334 14.9929V47.4047H56.5178V51.9015H23.7621Z" fill="#3E3A39"></path></svg>
