<svg xmlns="http://www.w3.org/2000/svg" viewBox="-1.00 -1.00 60.08 60.00" fill="none"><path d="M18.3692 37.5313V15.3916L31.2133 22.7163V28.9359L25.3251 25.5779V33.0094L18.3692 37.5313ZM32.7507 41.3645V31.5733L39.7066 35.5399V36.8426C37.3897 38.3481 35.0676 39.859 32.7507 41.3645ZM26.8625 28.2152L31.2186 30.6977V42.3629C31.2186 47.5735 31.2186 52.7841 31.2186 57.9947C46.2407 56.8789 58.0811 44.3435 58.0811 29.0374C58.0758 12.9998 45.0769 0 29.0406 0C12.9989 0 0 12.9998 0 29.0427C0 44.3489 11.8404 56.8895 26.8625 58C26.8625 48.07 26.8625 38.1452 26.8625 28.2152ZM18.3692 54.3964V39.3625L25.3251 34.8352V56.2916C22.8908 55.9659 20.5579 55.32 18.3692 54.3964ZM12.481 51.0009V43.1904L16.8371 40.3555V53.6916C15.2943 52.9282 13.8423 52.026 12.481 51.0009ZM47.1322 49.7517V32.011L41.244 35.8443V34.6537L32.756 29.8115V21.8301L16.8425 12.7542V38.535L10.9436 42.3682V49.757C5.17819 44.7119 1.53744 37.3017 1.53744 29.0427C1.53744 13.8487 13.8477 1.53756 29.0406 1.53756C44.2281 1.53756 56.5437 13.854 56.5437 29.0427C56.5383 37.3017 52.8976 44.7119 47.1322 49.7517ZM41.244 53.697V37.6701L45.6001 34.8352V51.0009C44.2388 52.026 42.7814 52.9335 41.244 53.697ZM32.7507 56.2969V43.1904L39.7066 38.6684V54.3964C37.5178 55.32 35.185 55.9659 32.7507 56.2969Z" fill="#3E3A39"></path></svg>
