<svg xmlns="http://www.w3.org/2000/svg" xmlns:xlink="http://www.w3.org/1999/xlink" width="170" height="50" viewBox="0 0 170 50"><defs><clipPath id="a"><rect width="170" height="50" transform="translate(1116 4504)" fill="#000000" stroke="#707070" stroke-width="1"/></clipPath></defs><g transform="translate(-1116 -4504)" clip-path="url(#a)"><g transform="translate(386.707 3774.641)"><path d="M759.387,847.824v-3.5a24.4,24.4,0,0,0,7.964,1.313q5.49,0,5.492-3.282,0-3.062-3.61-3.062h-3.719q-7.22,0-7.221-6.782,0-6.565,9.562-6.565a28.746,28.746,0,0,1,7.942,1.1v3.5a24.312,24.312,0,0,0-7.942-1.314q-5.733,0-5.732,3.283,0,3.063,3.392,3.063h3.719q7.658,0,7.658,6.782,0,6.565-9.54,6.565a28.745,28.745,0,0,1-7.964-1.1" transform="translate(0 -81.874)" fill="#000000"/><path d="M899.066,826.41h4.376l6.586,17.956,6.542-17.956h4.375L911.6,849.319h-3.763Z" transform="translate(-120.58 -82.273)" fill="#000000"/><g transform="translate(793.54 730.36)"><path d="M1381.813,837.442q0-11.486,10.941-11.485t10.938,11.485q0,11.467-10.938,11.466-10.9,0-10.941-11.466m10.941,8.206q6.89,0,6.891-8.292,0-8.118-6.891-8.118t-6.893,8.118q0,8.29,6.893,8.292" transform="translate(-1327.618 -812.244)" fill="#000000"/><path d="M1063.6,826.375a25.742,25.742,0,0,0-7.264,1.091v3.273a25.756,25.756,0,0,1,7.264-1.091q6.192,0,6.192,3.731v2.161a36.073,36.073,0,0,0-5.995-.438q-9.32,0-9.32,7.049,0,7.137,8.642,7.138a15.419,15.419,0,0,0,4.727-.61v-3.426a13.326,13.326,0,0,1-4.727.76q-4.6,0-4.594-3.926,0-3.71,5.273-3.71a34.555,34.555,0,0,1,5.995.435v10.476h4.048V833.707q0-7.331-10.24-7.332" transform="translate(-1047.237 -812.602)" fill="#000000"/><path d="M1233.734,844.518a12.327,12.327,0,0,1-5.536,1.36c-4.623,0-6.935-2.9-6.935-8.363,0-5.3,2.435-7.91,7.3-7.919,3.44.2,5.167,1.334,5.167,3.618v11.3Zm-7.473-18.045a10.542,10.542,0,0,0-5.82,2.371l-.164.14c-1.993,1.859-3,4.7-3,8.577q0,11.655,10.9,11.654a14.039,14.039,0,0,0,5.558-1.1v1.1q0,5.047-6.477,5.049a24.234,24.234,0,0,1-7.57-1.1v3.293a23.743,23.743,0,0,0,7.525,1.1q10.57,0,10.568-8.339v0l0,0V833.544c0-4.613-3.007-6.952-9.018-7.223h-.006s-1.637.047-2.5.153" transform="translate(-1186.688 -812.555)" fill="#000000"/><path d="M1004.617,735.957c0,.2.008.4.022.6a1.508,1.508,0,0,0,.135.532.871.871,0,0,0,.349.381,1.277,1.277,0,0,0,.658.143,1.01,1.01,0,0,0,.883-.358,1.775,1.775,0,0,0,.255-1.039v-4.666h.609v4.684a2.1,2.1,0,0,1-.439,1.437,1.748,1.748,0,0,1-1.379.5,1.812,1.812,0,0,1-.878-.184,1.331,1.331,0,0,1-.515-.492,1.991,1.991,0,0,1-.246-.708,5.29,5.29,0,0,1-.063-.828Z" transform="translate(-1004.008 -731.381)" fill="#000000"/><path d="M1040.177,736.632a2.286,2.286,0,0,0,1.08-.238,2.152,2.152,0,0,0,.743-.631,2.711,2.711,0,0,0,.431-.913,4.189,4.189,0,0,0,.138-1.084,4.084,4.084,0,0,0-.165-1.2,2.638,2.638,0,0,0-.48-.909,2.061,2.061,0,0,0-.761-.573,2.459,2.459,0,0,0-1-.2,2.237,2.237,0,0,0-1.07.243,2.172,2.172,0,0,0-.744.64,2.738,2.738,0,0,0-.43.918,4.352,4.352,0,0,0,0,2.177,2.685,2.685,0,0,0,.43.913,2.113,2.113,0,0,0,.744.627,2.352,2.352,0,0,0,1.088.233m-3.009-2.866a4.42,4.42,0,0,1,.192-1.326,3.194,3.194,0,0,1,.568-1.079,2.7,2.7,0,0,1,.931-.73,2.907,2.907,0,0,1,1.281-.268,3.111,3.111,0,0,1,1.321.264,2.659,2.659,0,0,1,.949.725,3.15,3.15,0,0,1,.574,1.084,4.487,4.487,0,0,1,.192,1.33,4.362,4.362,0,0,1-.192,1.312,3.2,3.2,0,0,1-.569,1.075,2.678,2.678,0,0,1-.94.729,3.319,3.319,0,0,1-2.616,0,2.683,2.683,0,0,1-.94-.729,3.133,3.133,0,0,1-.565-1.075,4.452,4.452,0,0,1-.187-1.312" transform="translate(-1032.411 -730.363)" fill="#000000"/></g><path d="M1085.774,734.658l1.943-3.108h.708l-2.337,3.635V738h-.609v-2.768l-2.3-3.681h.7Z" transform="translate(-278.279 -1.021)" fill="#000000"/><g transform="translate(813.226 730.36)"><path d="M1144.252,736.632a2.282,2.282,0,0,0,1.079-.238,2.141,2.141,0,0,0,.744-.631,2.669,2.669,0,0,0,.429-.913,4.184,4.184,0,0,0,.138-1.084,4.048,4.048,0,0,0-.165-1.2,2.625,2.625,0,0,0-.479-.909,2.069,2.069,0,0,0-.761-.573,2.465,2.465,0,0,0-1-.2,2.239,2.239,0,0,0-1.07.243,2.184,2.184,0,0,0-.742.64,2.741,2.741,0,0,0-.43.918,4.315,4.315,0,0,0,0,2.177,2.687,2.687,0,0,0,.43.913,2.124,2.124,0,0,0,.742.627,2.357,2.357,0,0,0,1.089.233m-3.01-2.866a4.459,4.459,0,0,1,.192-1.326,3.187,3.187,0,0,1,.57-1.079,2.7,2.7,0,0,1,.932-.73,2.9,2.9,0,0,1,1.28-.268,3.112,3.112,0,0,1,1.321.264,2.689,2.689,0,0,1,.95.725,3.165,3.165,0,0,1,.573,1.084,4.487,4.487,0,0,1,.192,1.33,4.362,4.362,0,0,1-.192,1.312,3.2,3.2,0,0,1-.569,1.075,2.665,2.665,0,0,1-.941.729,3.314,3.314,0,0,1-2.614,0,2.669,2.669,0,0,1-.942-.729,3.145,3.145,0,0,1-.563-1.075,4.448,4.448,0,0,1-.189-1.312" transform="translate(-1141.242 -730.363)" fill="#000000"/></g><path d="M1191.129,738v-6.448h4.157v.519h-3.547V734.4h3.224v.518h-3.224V738Z" transform="translate(-370.747 -1.021)" fill="#000000"/><g transform="translate(827.621 730.36)"><path d="M1246.462,732.4a1.847,1.847,0,0,0-.7-1.173,2.325,2.325,0,0,0-1.335-.349,2.051,2.051,0,0,0-1,.232,2.023,2.023,0,0,0-.693.627,2.747,2.747,0,0,0-.4.909,4.426,4.426,0,0,0-.129,1.088,4.977,4.977,0,0,0,.111,1.057,2.835,2.835,0,0,0,.371.927,1.981,1.981,0,0,0,.7.658,2.2,2.2,0,0,0,1.1.251,2.028,2.028,0,0,0,.752-.134,1.861,1.861,0,0,0,.6-.372,2.156,2.156,0,0,0,.43-.56,2.813,2.813,0,0,0,.263-.707h.637a4.086,4.086,0,0,1-.313.882,2.514,2.514,0,0,1-.542.73,2.456,2.456,0,0,1-.815.5,3.133,3.133,0,0,1-1.124.184,2.731,2.731,0,0,1-1.272-.274,2.408,2.408,0,0,1-.865-.738,3.106,3.106,0,0,1-.487-1.079,5.428,5.428,0,0,1-.151-1.3,4.711,4.711,0,0,1,.228-1.567,2.793,2.793,0,0,1,.631-1.053,2.4,2.4,0,0,1,.95-.591,3.72,3.72,0,0,1,1.191-.183,3.136,3.136,0,0,1,.918.13,2.267,2.267,0,0,1,.753.39,2.119,2.119,0,0,1,.537.64,2.694,2.694,0,0,1,.291.883Z" transform="translate(-1241.59 -730.363)" fill="#000000"/><path d="M1289.979,736.632a2.283,2.283,0,0,0,1.079-.238,2.15,2.15,0,0,0,.744-.631,2.667,2.667,0,0,0,.429-.913,4.21,4.21,0,0,0,.138-1.084,4.073,4.073,0,0,0-.164-1.2,2.642,2.642,0,0,0-.479-.909,2.067,2.067,0,0,0-.762-.573,2.466,2.466,0,0,0-1-.2,2.244,2.244,0,0,0-1.07.243,2.187,2.187,0,0,0-.741.64,2.732,2.732,0,0,0-.43.918,4.315,4.315,0,0,0,0,2.177,2.679,2.679,0,0,0,.43.913,2.127,2.127,0,0,0,.741.627,2.362,2.362,0,0,0,1.089.233m-3.01-2.866a4.44,4.44,0,0,1,.193-1.326,3.185,3.185,0,0,1,.569-1.079,2.7,2.7,0,0,1,.932-.73,2.9,2.9,0,0,1,1.28-.268,3.115,3.115,0,0,1,1.322.264,2.686,2.686,0,0,1,.949.725,3.164,3.164,0,0,1,.573,1.084,4.463,4.463,0,0,1,.192,1.33,4.339,4.339,0,0,1-.192,1.312,3.193,3.193,0,0,1-.569,1.075,2.663,2.663,0,0,1-.941.729,3.314,3.314,0,0,1-2.614,0,2.666,2.666,0,0,1-.941-.729,3.142,3.142,0,0,1-.564-1.075,4.468,4.468,0,0,1-.189-1.312" transform="translate(-1280.459 -730.363)" fill="#000000"/><path d="M1338.559,736.632a2.289,2.289,0,0,0,1.08-.238,2.151,2.151,0,0,0,.743-.631,2.677,2.677,0,0,0,.43-.913,4.153,4.153,0,0,0,.139-1.084,4.088,4.088,0,0,0-.165-1.2,2.623,2.623,0,0,0-.48-.909,2.071,2.071,0,0,0-.761-.573,2.462,2.462,0,0,0-1-.2,2.238,2.238,0,0,0-1.07.243,2.185,2.185,0,0,0-.744.64,2.786,2.786,0,0,0-.43.918,4.367,4.367,0,0,0,0,2.177,2.731,2.731,0,0,0,.43.913,2.125,2.125,0,0,0,.744.627,2.353,2.353,0,0,0,1.088.233m-3.008-2.866a4.42,4.42,0,0,1,.192-1.326,3.186,3.186,0,0,1,.569-1.079,2.705,2.705,0,0,1,.931-.73,2.9,2.9,0,0,1,1.281-.268,3.106,3.106,0,0,1,1.32.264,2.671,2.671,0,0,1,.95.725,3.165,3.165,0,0,1,.573,1.084,4.471,4.471,0,0,1,.193,1.33,4.346,4.346,0,0,1-.193,1.312,3.213,3.213,0,0,1-.568,1.075,2.669,2.669,0,0,1-.94.729,3.319,3.319,0,0,1-2.616,0,2.676,2.676,0,0,1-.94-.729,3.155,3.155,0,0,1-.565-1.075,4.5,4.5,0,0,1-.187-1.312" transform="translate(-1322.073 -730.363)" fill="#000000"/></g><path d="M1386.125,738v-6.448h.609v3.34l3.306-3.34h.688l-2.542,2.57,2.992,3.878h-.745l-2.686-3.5-1.013,1.013V738Z" transform="translate(-537.771 -1.021)" fill="#000000"/><rect width="0.609" height="6.448" transform="translate(854.507 730.529)" fill="#000000"/><path d="M1445.38,732.375h-.017V738h-.609v-6.448h.69l3.726,5.633h.018v-5.633h.609V738h-.707Z" transform="translate(-587.99 -1.021)" fill="#000000"/><g transform="translate(862.998 730.359)"><path d="M1491.2,734.166v-.519h2.758v3.332h-.519v-1.1a3.119,3.119,0,0,1-.39.525,2.142,2.142,0,0,1-.505.4,2.476,2.476,0,0,1-.663.255,3.686,3.686,0,0,1-.851.09,2.925,2.925,0,0,1-1.129-.215,2.422,2.422,0,0,1-.9-.64,2.988,2.988,0,0,1-.586-1.07,4.825,4.825,0,0,1-.211-1.5,4.721,4.721,0,0,1,.178-1.322,2.98,2.98,0,0,1,.551-1.065,2.606,2.606,0,0,1,.931-.712,3.12,3.12,0,0,1,1.322-.261,3.481,3.481,0,0,1,.954.126,2.529,2.529,0,0,1,.8.381,2.282,2.282,0,0,1,.595.635,2.657,2.657,0,0,1,.35.9h-.626a1.911,1.911,0,0,0-.273-.645,1.874,1.874,0,0,0-.462-.479,2.063,2.063,0,0,0-.6-.3,2.314,2.314,0,0,0-.69-.1,2.465,2.465,0,0,0-1.093.224,2.012,2.012,0,0,0-.753.631,2.756,2.756,0,0,0-.433.976,5.188,5.188,0,0,0-.14,1.25,3.279,3.279,0,0,0,.157,1.021,2.567,2.567,0,0,0,.457.851,2.151,2.151,0,0,0,1.724.8,2.582,2.582,0,0,0,.538-.058,2.106,2.106,0,0,0,.538-.192,2.071,2.071,0,0,0,.482-.35,1.958,1.958,0,0,0,.386-.529,2.336,2.336,0,0,0,.21-.636,4.678,4.678,0,0,0,.067-.7Z" transform="translate(-1488.207 -730.359)" fill="#000000"/></g></g></g></svg>