<?xml version="1.0" standalone="no"?>
<!DOCTYPE svg PUBLIC "-//W3C//DTD SVG 20010904//EN"
 "http://www.w3.org/TR/2001/REC-SVG-20010904/DTD/svg10.dtd">
<svg version="1.0" xmlns="http://www.w3.org/2000/svg"
 width="555.000000pt" height="155.000000pt" viewBox="0 0 555.000000 155.000000"
 preserveAspectRatio="xMidYMid meet">
<metadata>
Created by potrace 1.16, written by Peter Selinger 2001-2019
</metadata>
<g transform="translate(0.000000,155.000000) scale(0.100000,-0.100000)"
fill="#000000" stroke="none">
<path d="M247 1536 c-3 -8 -28 -21 -56 -31 -47 -15 -96 -56 -168 -140 -35 -39
-35 -271 0 -309 12 -13 32 -38 45 -55 23 -30 89 -79 127 -95 11 -5 108 -11
215 -15 182 -6 198 -8 240 -31 92 -52 87 -198 -10 -250 -69 -37 -337 -33 -502
7 -80 20 -81 19 -86 -57 -6 -87 7 -103 99 -117 41 -7 94 -17 119 -22 149 -33
434 1 525 63 119 81 160 210 117 367 -47 168 -139 213 -463 228 -212 10 -249
32 -249 148 0 74 29 106 123 134 87 27 234 29 342 6 187 -41 215 -34 215 52 0
57 -16 76 -78 90 -24 5 -51 16 -61 25 -25 22 -486 24 -494 2z"/>
<path d="M1010 1532 c0 -10 6 -26 14 -37 7 -11 17 -36 21 -55 4 -19 18 -55 31
-80 13 -25 24 -53 24 -63 0 -10 11 -40 25 -67 14 -27 25 -56 25 -65 0 -9 11
-37 25 -63 14 -26 25 -55 25 -65 0 -10 11 -39 25 -65 14 -26 25 -54 25 -62 0
-8 11 -37 25 -65 13 -27 25 -57 25 -65 0 -8 11 -37 25 -65 13 -27 25 -57 25
-65 0 -9 9 -34 20 -55 11 -22 25 -58 31 -80 6 -22 22 -55 35 -72 25 -33 26
-33 109 -33 l84 0 36 75 c19 41 35 79 35 85 0 6 11 33 25 60 14 27 25 55 25
62 0 7 11 34 25 60 14 26 25 53 25 60 0 7 11 34 25 60 14 26 25 53 25 61 0 8
11 35 25 61 14 26 25 53 25 59 0 7 9 30 20 52 11 21 25 54 31 74 7 20 20 52
30 71 11 19 19 42 19 50 0 8 11 36 25 62 14 26 25 53 25 60 0 7 9 30 20 51 39
73 35 77 -89 77 l-108 0 -18 -62 c-9 -35 -22 -72 -29 -83 -7 -11 -20 -42 -29
-70 -9 -27 -30 -88 -47 -135 -17 -47 -38 -105 -47 -130 -8 -25 -23 -63 -34
-86 -10 -23 -19 -47 -19 -55 0 -8 -11 -36 -23 -64 -13 -27 -27 -65 -30 -84
-15 -75 -68 -73 -88 3 -6 23 -22 66 -35 97 -13 31 -24 63 -24 70 0 8 -12 37
-25 64 -14 28 -25 57 -25 67 0 9 -11 40 -25 70 -14 29 -25 60 -25 68 0 8 -8
31 -19 50 -10 19 -22 50 -26 69 -4 18 -18 56 -30 85 -13 28 -27 68 -30 89 l-7
37 -114 0 c-103 0 -114 -2 -114 -18z"/>
<path d="M2339 1531 c-9 -10 -37 -21 -62 -25 -64 -10 -87 -47 -73 -121 9 -47
23 -49 181 -25 199 29 336 20 419 -28 57 -33 105 -193 65 -218 -6 -4 -118 -7
-248 -8 l-236 -1 -76 -37 c-104 -50 -149 -103 -179 -211 -23 -85 -22 -105 8
-216 22 -82 105 -173 174 -191 24 -6 62 -18 86 -26 76 -25 276 -19 340 11 l52
24 0 66 c0 81 0 81 -138 65 -222 -25 -322 28 -322 172 0 77 24 120 86 153 l55
30 174 0 c161 0 176 -2 202 -21 l28 -21 5 -230 c4 -174 8 -234 19 -246 21 -27
166 -24 181 2 6 13 10 161 10 414 l0 395 -25 67 c-42 112 -102 167 -216 201
-27 8 -53 22 -56 30 -9 24 -432 19 -454 -5z"/>
<path d="M3647 1536 c-3 -8 -28 -21 -54 -29 -114 -34 -209 -123 -264 -245
l-34 -77 0 -205 c0 -190 2 -208 22 -250 12 -25 28 -61 36 -80 16 -41 107 -135
162 -168 75 -45 217 -74 335 -69 58 3 123 12 145 21 62 24 93 21 101 -9 23
-94 -52 -201 -165 -235 -127 -38 -171 -37 -415 4 -109 19 -116 15 -116 -65 0
-60 20 -89 61 -89 9 0 28 -9 42 -20 34 -27 493 -31 503 -5 4 8 28 21 55 29 92
28 164 91 211 185 l33 66 0 500 0 500 -35 60 c-43 71 -114 129 -187 151 -28 8
-54 21 -57 29 -8 22 -371 22 -379 1z m294 -173 c58 -13 81 -24 114 -54 l40
-38 3 -305 3 -305 -39 -26 c-62 -41 -239 -58 -350 -35 -60 13 -138 79 -177
148 -56 100 -59 361 -5 464 72 136 226 193 411 151z"/>
<path d="M4807 1536 c-3 -8 -27 -21 -54 -30 -119 -40 -238 -169 -259 -281 -4
-22 -13 -58 -21 -79 -24 -71 -18 -259 12 -371 66 -240 216 -349 499 -362 264
-12 463 102 526 300 7 21 18 41 26 44 22 8 21 441 -1 449 -8 4 -21 28 -29 54
-31 105 -150 225 -242 244 -18 4 -40 16 -50 27 -23 25 -398 30 -407 5z m331
-177 c140 -47 208 -170 206 -379 -2 -238 -82 -360 -258 -390 -150 -25 -280 16
-348 110 -91 129 -93 443 -3 558 50 65 125 107 225 126 40 7 110 -3 178 -25z"/>
</g>
</svg>
