<?xml version="1.0" encoding="utf-8"?>
<!-- Generator: Adobe Illustrator 28.0.0, SVG Export Plug-In . SVG Version: 6.00 Build 0)  -->
<svg version="1.1" id="圖層_1" xmlns="http://www.w3.org/2000/svg" xmlns:xlink="http://www.w3.org/1999/xlink" x="0px" y="0px"
	 viewBox="0 0 170 50" style="enable-background:new 0 0 170 50;" xml:space="preserve">
<style type="text/css">
	.st0{clip-path:url(#SVGID_00000102525148061996590730000003027507102168420992_);}
	.st1{fill:#000000;}
</style>
<g>
	<defs>
		<rect id="SVGID_1_" width="170" height="50"/>
	</defs>
	<clipPath id="SVGID_00000176733073913880235760000007499103283585672107_">
		<use xlink:href="#SVGID_1_"  style="overflow:visible;"/>
	</clipPath>
	<g transform="translate(-1116 -4504)" style="clip-path:url(#SVGID_00000176733073913880235760000007499103283585672107_);">
		<g transform="translate(386.707 3774.641)">
			<path class="st1" d="M759.4,765.9v-3.5c2.6,0.9,5.3,1.3,8,1.3c3.7,0,5.5-1.1,5.5-3.3c0-2-1.2-3.1-3.6-3.1h-3.7
				c-4.8,0-7.2-2.3-7.2-6.8c0-4.4,3.2-6.6,9.6-6.6c2.7,0,5.4,0.4,7.9,1.1v3.5c-2.6-0.9-5.2-1.3-7.9-1.3c-3.8,0-5.7,1.1-5.7,3.3
				c0,2,1.1,3.1,3.4,3.1h3.7c5.1,0,7.7,2.3,7.7,6.8c0,4.4-3.2,6.6-9.5,6.6C764.7,767.1,762,766.7,759.4,765.9"/>
			<path class="st1" d="M778.5,744.1h4.4l6.6,18l6.5-18h4.4L791,767h-3.8L778.5,744.1z"/>
			<g transform="translate(793.54 730.36)">
				<path class="st1" d="M54.2,25.2c0-7.7,3.6-11.5,10.9-11.5c7.3,0,10.9,3.8,10.9,11.5c0,7.6-3.6,11.5-10.9,11.5
					C57.9,36.7,54.2,32.8,54.2,25.2 M65.1,33.4c4.6,0,6.9-2.8,6.9-8.3c0-5.4-2.3-8.1-6.9-8.1s-6.9,2.7-6.9,8.1
					C58.2,30.6,60.5,33.4,65.1,33.4"/>
				<path class="st1" d="M16.4,13.8c-2.5,0-4.9,0.4-7.3,1.1v3.3c2.4-0.7,4.8-1.1,7.3-1.1c4.1,0,6.2,1.2,6.2,3.7v2.2
					c-2-0.3-4-0.5-6-0.4c-6.2,0-9.3,2.3-9.3,7c0,4.8,2.9,7.1,8.6,7.1c1.6,0,3.2-0.2,4.7-0.6v-3.4c-1.5,0.5-3.1,0.8-4.7,0.8
					c-3.1,0-4.6-1.3-4.6-3.9c0-2.5,1.8-3.7,5.3-3.7c2,0,4,0.1,6,0.4v10.5h4V21.1C26.6,16.2,23.2,13.8,16.4,13.8"/>
				<path class="st1" d="M47,32c-1.7,0.9-3.6,1.3-5.5,1.4c-4.6,0-6.9-2.9-6.9-8.4c0-5.3,2.4-7.9,7.3-7.9c3.4,0.2,5.2,1.3,5.2,3.6
					L47,32L47,32z M39.6,13.9c-2.1,0.2-4.2,1-5.8,2.4l-0.2,0.1c-2,1.9-3,4.7-3,8.6c0,7.8,3.6,11.7,10.9,11.7c1.9,0,3.8-0.4,5.6-1.1
					v1.1c0,3.4-2.2,5-6.5,5c-2.6,0-5.1-0.3-7.6-1.1v3.3c2.4,0.8,5,1.1,7.5,1.1c7,0,10.6-2.8,10.6-8.3l0,0l0,0V21c0-4.6-3-7-9-7.2h0
					C42.1,13.8,40.4,13.8,39.6,13.9"/>
				<path class="st1" d="M0.6,4.6c0,0.2,0,0.4,0,0.6c0,0.2,0.1,0.4,0.1,0.5C0.8,5.9,1,6,1.1,6.1c0.2,0.1,0.4,0.2,0.7,0.1
					c0.3,0,0.7-0.1,0.9-0.4c0.2-0.3,0.3-0.7,0.3-1V0.2h0.6v4.7c0,0.5-0.1,1-0.4,1.4C2.7,6.7,2.2,6.8,1.7,6.8c-0.3,0-0.6-0.1-0.9-0.2
					C0.6,6.5,0.4,6.3,0.3,6.1C0.2,5.9,0.1,5.7,0.1,5.4C0,5.1,0,4.9,0,4.6L0.6,4.6z"/>
				<path class="st1" d="M7.8,6.3c0.4,0,0.7-0.1,1.1-0.2c0.3-0.2,0.5-0.4,0.7-0.6C9.8,5.1,9.9,4.8,10,4.5c0.1-0.4,0.1-0.7,0.1-1.1
					c0-0.4-0.1-0.8-0.2-1.2C9.9,1.9,9.7,1.6,9.5,1.3C9.3,1,9,0.9,8.8,0.7c-0.3-0.1-0.7-0.2-1-0.2C7.4,0.5,7,0.6,6.7,0.8
					C6.4,0.9,6.1,1.1,5.9,1.4C5.7,1.7,5.6,2,5.5,2.3C5.3,3,5.3,3.8,5.5,4.5c0.1,0.3,0.2,0.6,0.4,0.9C6.1,5.7,6.4,5.9,6.7,6
					C7,6.2,7.4,6.3,7.8,6.3 M4.8,3.4C4.8,3,4.8,2.5,5,2.1C5.1,1.7,5.3,1.3,5.5,1c0.3-0.3,0.6-0.6,0.9-0.7C6.9,0.1,7.3,0,7.7,0
					c0.5,0,0.9,0.1,1.3,0.3C9.4,0.4,9.7,0.7,10,1c0.3,0.3,0.5,0.7,0.6,1.1c0.1,0.4,0.2,0.9,0.2,1.3c0,0.4-0.1,0.9-0.2,1.3
					c-0.1,0.4-0.3,0.8-0.6,1.1C9.8,6.1,9.4,6.4,9.1,6.5c-0.8,0.4-1.8,0.4-2.6,0C6.1,6.4,5.8,6.1,5.5,5.8C5.3,5.5,5.1,5.1,4.9,4.7
					C4.8,4.3,4.8,3.9,4.8,3.4"/>
			</g>
			<path class="st1" d="M807.5,733.6l1.9-3.1h0.7l-2.3,3.6v2.8h-0.6v-2.8l-2.3-3.7h0.7L807.5,733.6z"/>
			<g transform="translate(813.226 730.36)">
				<path class="st1" d="M3,6.3c0.4,0,0.7-0.1,1.1-0.2c0.3-0.2,0.5-0.4,0.7-0.6C5,5.1,5.2,4.8,5.3,4.5c0.1-0.4,0.1-0.7,0.1-1.1
					c0-0.4-0.1-0.8-0.2-1.2C5.1,1.9,5,1.6,4.8,1.3C4.6,1,4.3,0.9,4,0.7C3.7,0.6,3.3,0.5,3,0.5c-0.4,0-0.7,0.1-1.1,0.2
					C1.6,0.9,1.4,1.1,1.2,1.4C1,1.7,0.8,2,0.8,2.3C0.6,3,0.6,3.8,0.8,4.5C0.8,4.8,1,5.1,1.2,5.4C1.4,5.7,1.6,5.9,1.9,6
					C2.3,6.2,2.6,6.3,3,6.3 M0,3.4C0,3,0.1,2.5,0.2,2.1C0.3,1.7,0.5,1.3,0.8,1C1,0.7,1.3,0.4,1.7,0.3C2.1,0.1,2.5,0,3,0
					c0.5,0,0.9,0.1,1.3,0.3C4.7,0.4,5,0.7,5.2,1c0.3,0.3,0.5,0.7,0.6,1.1C6,2.5,6,3,6,3.4C6,3.9,6,4.3,5.8,4.7
					C5.7,5.1,5.5,5.5,5.3,5.8C5,6.1,4.7,6.4,4.3,6.5c-0.8,0.4-1.8,0.4-2.6,0C1.3,6.4,1,6.1,0.8,5.8C0.5,5.5,0.3,5.1,0.2,4.7
					C0.1,4.3,0,3.9,0,3.4"/>
			</g>
			<path class="st1" d="M820.4,737v-6.4h4.2v0.5H821v2.3h3.2v0.5H821v3.1H820.4z"/>
			<g transform="translate(827.621 730.36)">
				<path class="st1" d="M4.9,2C4.8,1.6,4.5,1.2,4.2,0.9C3.8,0.6,3.3,0.5,2.8,0.5c-0.3,0-0.7,0.1-1,0.2C1.6,0.9,1.3,1.1,1.1,1.4
					C1,1.7,0.8,2,0.7,2.3C0.7,2.6,0.6,3,0.6,3.4c0,0.4,0,0.7,0.1,1.1c0.1,0.3,0.2,0.6,0.4,0.9C1.3,5.6,1.5,5.9,1.8,6
					c0.3,0.2,0.7,0.3,1.1,0.3c0.3,0,0.5,0,0.8-0.1C3.9,6,4.1,5.9,4.2,5.8c0.2-0.2,0.3-0.4,0.4-0.6C4.8,5,4.9,4.7,4.9,4.5h0.6
					C5.5,4.8,5.4,5.1,5.3,5.4C5.1,5.6,4.9,5.9,4.7,6.1C4.5,6.3,4.2,6.5,3.9,6.6C3.5,6.7,3.2,6.8,2.8,6.8c-0.4,0-0.9-0.1-1.3-0.3
					C1.2,6.3,0.9,6.1,0.6,5.8C0.4,5.5,0.3,5.1,0.2,4.7C0.1,4.3,0,3.8,0,3.4c0-0.5,0.1-1.1,0.2-1.6c0.1-0.4,0.3-0.8,0.6-1.1
					c0.3-0.3,0.6-0.5,0.9-0.6C2.2,0.1,2.6,0,3,0c0.3,0,0.6,0,0.9,0.1c0.3,0.1,0.5,0.2,0.8,0.4c0.2,0.2,0.4,0.4,0.5,0.6
					C5.4,1.4,5.5,1.7,5.5,2L4.9,2z"/>
				<path class="st1" d="M9.5,6.3c0.4,0,0.7-0.1,1.1-0.2c0.3-0.2,0.5-0.4,0.7-0.6c0.2-0.3,0.3-0.6,0.4-0.9c0.1-0.4,0.1-0.7,0.1-1.1
					c0-0.4,0-0.8-0.2-1.2c-0.1-0.3-0.3-0.6-0.5-0.9c-0.2-0.2-0.5-0.4-0.8-0.6c-0.3-0.1-0.7-0.2-1-0.2c-0.4,0-0.7,0.1-1.1,0.2
					C8.1,0.9,7.9,1.1,7.7,1.4C7.5,1.7,7.3,2,7.3,2.3C7.1,3,7.1,3.8,7.3,4.5c0.1,0.3,0.2,0.6,0.4,0.9C7.9,5.7,8.1,5.9,8.4,6
					C8.8,6.2,9.1,6.3,9.5,6.3 M6.5,3.4c0-0.4,0.1-0.9,0.2-1.3C6.8,1.7,7,1.3,7.3,1c0.3-0.3,0.6-0.6,0.9-0.7C8.6,0.1,9,0,9.5,0
					c0.5,0,0.9,0.1,1.3,0.3c0.4,0.2,0.7,0.4,0.9,0.7c0.3,0.3,0.5,0.7,0.6,1.1c0.1,0.4,0.2,0.9,0.2,1.3c0,0.4-0.1,0.9-0.2,1.3
					c-0.1,0.4-0.3,0.8-0.6,1.1c-0.3,0.3-0.6,0.6-0.9,0.7C10,6.9,9,6.9,8.2,6.5C7.8,6.4,7.5,6.1,7.3,5.8C7,5.5,6.8,5.1,6.7,4.7
					C6.6,4.3,6.5,3.9,6.5,3.4"/>
				<path class="st1" d="M16.5,6.3c0.4,0,0.7-0.1,1.1-0.2c0.3-0.2,0.5-0.4,0.7-0.6c0.2-0.3,0.3-0.6,0.4-0.9c0.1-0.4,0.1-0.7,0.1-1.1
					c0-0.4-0.1-0.8-0.2-1.2c-0.1-0.3-0.3-0.6-0.5-0.9C18,1,17.8,0.9,17.5,0.7c-0.3-0.1-0.7-0.2-1-0.2c-0.4,0-0.7,0.1-1.1,0.2
					c-0.3,0.2-0.5,0.4-0.7,0.6c-0.2,0.3-0.3,0.6-0.4,0.9C14,3,14,3.8,14.2,4.5c0.1,0.3,0.2,0.6,0.4,0.9c0.2,0.3,0.5,0.5,0.7,0.6
					C15.7,6.2,16.1,6.3,16.5,6.3 M13.5,3.4c0-0.4,0.1-0.9,0.2-1.3C13.8,1.7,14,1.3,14.2,1c0.3-0.3,0.6-0.6,0.9-0.7
					C15.6,0.1,16,0,16.5,0c0.5,0,0.9,0.1,1.3,0.3c0.4,0.2,0.7,0.4,0.9,0.7c0.3,0.3,0.5,0.7,0.6,1.1c0.1,0.4,0.2,0.9,0.2,1.3
					c0,0.4-0.1,0.9-0.2,1.3c-0.1,0.4-0.3,0.8-0.6,1.1c-0.3,0.3-0.6,0.6-0.9,0.7c-0.8,0.4-1.8,0.4-2.6,0c-0.4-0.2-0.7-0.4-0.9-0.7
					c-0.3-0.3-0.4-0.7-0.6-1.1C13.5,4.3,13.5,3.9,13.5,3.4"/>
			</g>
			<path class="st1" d="M848.4,737v-6.4h0.6v3.3l3.3-3.3h0.7l-2.5,2.6l3,3.9h-0.7l-2.7-3.5l-1,1v2.5H848.4z"/>
			<rect x="854.5" y="730.5" class="st1" width="0.6" height="6.4"/>
			<path class="st1" d="M857.4,731.4L857.4,731.4l0,5.6h-0.6v-6.4h0.7l3.7,5.6h0v-5.6h0.6v6.4h-0.7L857.4,731.4z"/>
			<g transform="translate(862.998 730.359)">
				<path class="st1" d="M3,3.8V3.3h2.8v3.3H5.2V5.5C5.1,5.7,5,5.9,4.8,6C4.7,6.2,4.5,6.3,4.3,6.4C4.1,6.6,3.9,6.6,3.7,6.7
					C3.4,6.8,3.1,6.8,2.8,6.8c-0.4,0-0.8-0.1-1.1-0.2C1.3,6.4,1,6.2,0.8,5.9C0.5,5.6,0.3,5.3,0.2,4.9C0.1,4.4,0,3.9,0,3.4
					C0,2.9,0.1,2.5,0.2,2C0.3,1.7,0.5,1.3,0.7,1C1,0.7,1.3,0.4,1.7,0.3C2.1,0.1,2.5,0,3,0c0.3,0,0.6,0,1,0.1
					c0.3,0.1,0.6,0.2,0.8,0.4C5,0.7,5.2,0.9,5.3,1.1C5.5,1.4,5.6,1.7,5.7,2H5.1C5,1.8,4.9,1.6,4.8,1.4C4.7,1.2,4.5,1.1,4.3,0.9
					C4.1,0.8,3.9,0.7,3.7,0.6C3.5,0.6,3.3,0.5,3,0.5c-0.4,0-0.8,0.1-1.1,0.2C1.6,0.9,1.4,1.1,1.2,1.4C1,1.7,0.8,2,0.7,2.4
					C0.7,2.8,0.6,3.2,0.6,3.6c0,0.3,0.1,0.7,0.2,1C0.9,4.9,1,5.2,1.2,5.5C1.6,6,2.3,6.3,2.9,6.3c0.2,0,0.4,0,0.5-0.1
					C3.7,6.2,3.9,6.1,4,6c0.2-0.1,0.3-0.2,0.5-0.3c0.2-0.2,0.3-0.3,0.4-0.5C5,4.9,5.1,4.7,5.1,4.5c0-0.2,0.1-0.5,0.1-0.7L3,3.8z"/>
			</g>
		</g>
	</g>
</g>
<g>
	<g>
		<path class="st1" d="M4,12.9v-0.4c0-1.9,1.6-3.5,3.5-3.5h0.4c1.9,0,3.5,1.6,3.5,3.5v0.4c0,1.9-1.6,3.5-3.5,3.5H7.5
			C5.5,16.4,4,14.8,4,12.9z"/>
		<path class="st1" d="M165.9,39.9L150,9.4c-0.1-0.3-0.4-0.4-0.7-0.4H135c-0.3,0-0.6,0.2-0.7,0.4l-14.2,26.8
			c-0.1,0.2-0.4,0.3-0.6,0.1L106,25.5c-0.4-0.3-0.4-0.9,0-1.2l15-13.9c0.5-0.5,0.2-1.4-0.6-1.4h-10c-0.7,0-1.3,0.3-1.8,0.7
			L96.8,20.9C96.8,21,96.7,21,96.6,21h-3.4c-0.2,0-0.4-0.2-0.4-0.4V9.8c0-0.5-0.4-0.8-0.8-0.8h-8.2c-0.5,0-0.8,0.4-0.8,0.8v30.5
			c0,0.5,0.4,0.8,0.8,0.8h8.2c0.5,0,0.8-0.4,0.8-0.8V28.9c0-0.2,0.2-0.4,0.4-0.4h3.3c0.1,0,0.2,0,0.3,0.1l13.4,11.8
			c0.5,0.4,1.1,0.6,1.7,0.6h16.3c0.3,0,0.6-0.2,0.7-0.4l2.4-4.8c0.1-0.1,0.2-0.2,0.4-0.2h20.8c0.2,0,0.3,0.1,0.4,0.2l2.4,4.8
			c0.1,0.3,0.4,0.4,0.7,0.4h9.3C165.8,41.1,166.2,40.4,165.9,39.9z M148.6,28.6h-13c-0.3,0-0.5-0.3-0.4-0.6l6.5-12.8
			c0.2-0.3,0.6-0.3,0.7,0L149,28C149.1,28.3,148.9,28.6,148.6,28.6z"/>
		<path class="st1" d="M57.9,16.4h21.3c0.5,0,0.8-0.4,0.8-0.8V9.8c0-0.5-0.4-0.8-0.8-0.8h-65c-0.5,0-0.8,0.4-0.8,0.8v5.8
			c0,0.5,0.4,0.8,0.8,0.8H22c0.2,0,0.4,0.2,0.4,0.4v23.5c0,0.5,0.4,0.8,0.8,0.8h8.2c0.5,0,0.8-0.4,0.8-0.8V16.8
			c0-0.2,0.2-0.4,0.4-0.4h14.6c0.2,0,0.4,0.2,0.4,0.4v23.5c0,0.5,0.4,0.8,0.8,0.8h30.7c0.5,0,0.8-0.4,0.8-0.8v-6.2
			c0-0.5-0.4-0.8-0.8-0.8H57.9c-0.2,0-0.4-0.2-0.4-0.4v-4.1c0-0.2,0.2-0.4,0.4-0.4h17.3c0.5,0,0.8-0.4,0.8-0.8v-5.4
			c0-0.5-0.4-0.8-0.8-0.8H57.9c-0.2,0-0.4-0.2-0.4-0.4v-4.2C57.5,16.5,57.6,16.4,57.9,16.4z"/>
	</g>
</g>
</svg>
