<svg xmlns="http://www.w3.org/2000/svg" width="265.916" height="21.027" viewBox="0 0 265.916 21.027"><g transform="translate(14701.084 12892)"><path d="M118.316-258.58c5.354,0,7.376-5.024,7.376-7.155v-13.672h-4.378v13.785a2.971,2.971,0,0,1-2.849,2.947h-5.473a2.973,2.973,0,0,1-2.829-2.947v-13.785h-4.354v13.672c0,2.131,2.007,7.155,7.365,7.155Z" transform="translate(-14742.847 -12612.482)" fill="#fff"/><path d="M208.868-266.578l6.005,7.888H209.42l-9.3-12.04h7.443a2.307,2.307,0,0,0,2.122-2.321,2.315,2.315,0,0,0-2.122-2.321h-8.537v16.682h-4.389v-20.866h12.958a6.576,6.576,0,0,1,6.471,6.5,6.5,6.5,0,0,1-5.2,6.474" transform="translate(-14808.141 -12612.371)" fill="#fff"/><path d="M38.08-268.32l8.2,9.641H51.8l-9.41-10.964,8.593-9.863h-5.5l-7.4,8.314v-8.314H33.689v20.853H38.08Z" transform="translate(-14689.833 -12612.408)" fill="#fff"/><path d="M-45.137-279.715l9.243,20.887H-40.4l-2.135-4.978h-9.835l-2.134,4.978h-4.487l9.237-20.887Zm.76,11.765-3.07-7.087-3.023,7.087Z" transform="translate(-14621.706 -12612.256)" fill="#fff"/><path d="M-129.565-275.429a2.047,2.047,0,0,0-1.927,2.032,2.078,2.078,0,0,0,2.072,2.086h6.7a6.143,6.143,0,0,1,6.5,6.187,6.085,6.085,0,0,1-6.268,6.4h-12.56v-4.133h12.283a2.27,2.27,0,0,0,2.076-2.25,2.224,2.224,0,0,0-2.137-2.069h-6.735a6.176,6.176,0,0,1-6.383-6.294,6.259,6.259,0,0,1,6.181-6.133h12.221v4.173Z" transform="translate(-14565.145 -12612.338)" fill="#fff"/><path d="M279.945-279.715l9.217,20.887h-4.5l-2.12-4.978H272.7l-2.123,4.978h-4.5l9.219-20.887Zm.77,11.765-3.085-7.087-3.045,7.087Z" transform="translate(-14860.653 -12612.256)" fill="#fff"/><path d="M46.819-268.32l8.2,9.641h5.52l-9.41-10.964,8.593-9.863h-5.5l-7.4,8.314-1.241,1.445Z" transform="translate(-14698.572 -12612.408)" fill="#fff"/><rect width="2.231" height="4.863" transform="translate(-14504.888 -12887.246)" fill="#f5333f"/><rect width="13.87" height="2.231" transform="translate(-14477.455 -12882.637)" fill="#f5333f"/><rect width="11.542" height="2.231" transform="translate(-14494.711 -12882.621)" fill="#f5333f"/><rect width="2.608" height="20.993" transform="translate(-14563.849 -12891.967)" fill="#fff"/><path d="M548.616-258.895a6.9,6.9,0,0,1-6.1-7.183v-6.573a6.89,6.89,0,0,1,6.1-7.17H561.2v2.532H549.036a4.154,4.154,0,0,0-3.94,4.247v7.369a4.167,4.167,0,0,0,3.94,4.27H561.2v2.507Z" transform="translate(-15063.854 -12612.178)" fill="#fff"/><path d="M806.822-258.916v-14.337a4.152,4.152,0,0,0-4.22-3.965h-7.589a4.164,4.164,0,0,0-4.243,3.965v14.337h-2.492v-14.759a6.891,6.891,0,0,1,7.139-6.141h6.8a6.884,6.884,0,0,1,7.126,6.141v14.759Z" transform="translate(-15244.508 -12612.182)" fill="#fff"/><rect width="2.608" height="21.027" transform="translate(-14546.427 -12892)" fill="#fff"/><rect width="2.608" height="20.891" transform="translate(-14499.55 -12891.967)" fill="#fff"/><path d="M474.456-258.71v-18.472h-8.168V-279.7h18.943v2.522h-8.168v18.472Z" transform="translate(-15007.823 -12612.264)" fill="#fff"/><path d="M398.729-258.805l-10.484-11.211,9.482-9.684h3.637l-9.411,9.826L402.4-258.805Z" transform="translate(-14950.457 -12612.266)" fill="#fff"/><path d="M708.165-258.815v-2.507h12.162a4.166,4.166,0,0,0,3.94-4.27v-7.341a4.154,4.154,0,0,0-3.94-4.247H708.165v-2.532h12.582a6.89,6.89,0,0,1,6.1,7.17V-266a6.9,6.9,0,0,1-6.1,7.183Z" transform="translate(-15185.619 -12612.258)" fill="#fff"/><rect width="2.608" height="20.892" transform="translate(-14483.169 -12891.967)" fill="#fff"/></g></svg>