<svg xmlns="http://www.w3.org/2000/svg" xmlns:xlink="http://www.w3.org/1999/xlink" width="170" height="50" viewBox="0 0 170 50"><defs><clipPath id="a"><rect width="170" height="50" transform="translate(196 4504)" fill="#fff" stroke="#707070" stroke-width="1"/></clipPath></defs><g transform="translate(-196 -4504)" clip-path="url(#a)"><g transform="translate(10237.502 24453.094)"><path d="M1179.152-297.915c6.61,0,9.106-6.2,9.106-8.833v-16.878h-5.405v17.018a3.668,3.668,0,0,1-3.517,3.638h-6.757a3.669,3.669,0,0,1-3.492-3.638v-17.018h-5.376v16.878c0,2.632,2.478,8.833,9.093,8.833Z" transform="translate(-11121.145 -19615.271)" fill="#fff"/><path d="M1266.216-307.747l7.414,9.738H1266.9l-11.482-14.864h9.188a2.848,2.848,0,0,0,2.619-2.866,2.858,2.858,0,0,0-2.619-2.865h-10.539v20.6h-5.418v-25.76h16a8.119,8.119,0,0,1,7.989,8.03,8.028,8.028,0,0,1-6.416,7.992" transform="translate(-11177.026 -19615.18)" fill="#fff"/><path d="M1100.173-309.912l10.127,11.9h6.816L1105.5-311.545l10.609-12.176h-6.794l-9.139,10.264v-10.264h-5.42v25.744h5.42Z" transform="translate(-11075.775 -19615.213)" fill="#fff"/><path d="M1023.236-323.921l11.412,25.786h-5.565l-2.637-6.146h-12.141l-2.635,6.146h-5.54l11.4-25.786Zm.938,14.525-3.79-8.749-3.732,8.749Z" transform="translate(-11017.471 -19615.078)" fill="#fff"/><path d="M940.427-318.661a2.527,2.527,0,0,0-2.378,2.509,2.565,2.565,0,0,0,2.558,2.575h8.272c4.763,0,8.029,3.324,8.029,7.638,0,4.352-2.943,7.9-7.738,7.9H933.664v-5.1h15.164a2.8,2.8,0,0,0,2.563-2.777,2.745,2.745,0,0,0-2.638-2.554h-8.315a7.625,7.625,0,0,1-7.88-7.771,7.727,7.727,0,0,1,7.63-7.571h15.088v5.152Z" transform="translate(-10969.061 -19615.152)" fill="#fff"/><path d="M1334.076-323.921l11.379,25.786H1339.9l-2.617-6.146h-12.155l-2.621,6.146h-5.554l11.382-25.786Zm.95,14.525-3.808-8.749-3.759,8.749Z" transform="translate(-11221.971 -19615.078)" fill="#fff"/><path d="M1107.652-309.912l10.126,11.9h6.816l-11.618-13.535,10.609-12.176h-6.795l-9.139,10.264-1.532,1.784Z" transform="translate(-11083.253 -19615.213)" fill="#fff"/></g></g></svg>